ISO-10303-21;
HEADER;
/* Generated by software containing ST-Developer
 * from STEP Tools, Inc. (www.steptools.com) 
 */

FILE_DESCRIPTION(
/* description */ (''),
/* implementation_level */ '2;1');

FILE_NAME(
/* name */ 'Controller_Top.step',
/* time_stamp */ '2026-06-16T09:09:00-07:00',
/* author */ (''),
/* organization */ (''),
/* preprocessor_version */ 'ST-DEVELOPER v20.1',
/* originating_system */ 'Autodesk Translation Framework v15.8.0.0',
/* authorisation */ '');

FILE_SCHEMA (('AUTOMOTIVE_DESIGN { 1 0 10303 214 3 1 1 }'));
ENDSEC;

DATA;
#10=MECHANICAL_DESIGN_GEOMETRIC_PRESENTATION_REPRESENTATION('',(#13),#1376);
#11=SHAPE_REPRESENTATION_RELATIONSHIP('SRR','None',#1383,#12);
#12=ADVANCED_BREP_SHAPE_REPRESENTATION('',(#14),#1375);
#13=STYLED_ITEM('',(#1392),#14);
#14=MANIFOLD_SOLID_BREP('Body1',#748);
#15=FACE_BOUND('',#138,.T.);
#16=FACE_BOUND('',#139,.T.);
#17=FACE_BOUND('',#140,.T.);
#18=FACE_BOUND('',#141,.T.);
#19=FACE_BOUND('',#142,.T.);
#20=FACE_BOUND('',#143,.T.);
#21=FACE_BOUND('',#144,.T.);
#22=FACE_BOUND('',#145,.T.);
#23=FACE_BOUND('',#146,.T.);
#24=FACE_BOUND('',#147,.T.);
#25=FACE_BOUND('',#148,.T.);
#26=FACE_BOUND('',#149,.T.);
#27=FACE_BOUND('',#150,.T.);
#28=FACE_BOUND('',#152,.T.);
#29=FACE_BOUND('',#153,.T.);
#30=FACE_BOUND('',#154,.T.);
#31=FACE_BOUND('',#155,.T.);
#32=FACE_BOUND('',#156,.T.);
#33=FACE_BOUND('',#157,.T.);
#34=FACE_BOUND('',#158,.T.);
#35=FACE_BOUND('',#159,.T.);
#36=FACE_BOUND('',#160,.T.);
#37=FACE_BOUND('',#161,.T.);
#38=FACE_BOUND('',#162,.T.);
#39=FACE_BOUND('',#163,.T.);
#40=FACE_BOUND('',#164,.T.);
#41=(
BOUNDED_CURVE()
B_SPLINE_CURVE(5,(#1278,#1279,#1280,#1281,#1282,#1283,#1284,#1285,#1286,
#1287,#1288,#1289,#1290,#1291,#1292,#1293,#1294,#1295,#1296,#1297,#1298,
#1299,#1300,#1301,#1302,#1303,#1304,#1305,#1306,#1307,#1308,#1309,#1310,
#1311,#1312,#1313,#1314,#1315,#1316,#1317,#1318,#1319,#1320,#1321),
 .UNSPECIFIED.,.F.,.F.)
B_SPLINE_CURVE_WITH_KNOTS((6,1,1,1,1,1,1,1,1,1,1,1,1,1,1,1,1,1,1,1,1,1,
1,1,5,1,1,1,1,1,1,1,1,1,1,6),(0.322746840767003,0.342857142857143,0.371428571428571,
0.4,0.428571428571429,0.457142857142857,0.485714285714286,0.514285714285714,
0.542857142857143,0.571428571428572,0.6,0.628571428571429,0.657142857142857,
0.685714285714286,0.714285714285714,0.742857142857143,0.771428571428572,
0.8,0.828571428571429,0.857142857142857,0.885714285714286,0.914285714285714,
0.942857142857143,0.971428571428572,1.,1.02857142857143,1.05714285714286,
1.08571428571429,1.11428571428571,1.14285714285714,1.17142857142857,1.2,
1.22857142857143,1.25714285714286,1.28571428571429,1.28861320414507),
 .UNSPECIFIED.)
CURVE()
GEOMETRIC_REPRESENTATION_ITEM()
RATIONAL_B_SPLINE_CURVE((1.,1.,1.,1.,1.,1.,1.,1.,1.,1.,1.,1.,1.,1.,1.,1.,
1.,1.,1.,1.,1.,1.,1.,1.,1.,1.,1.,1.,1.,1.,1.,1.,1.,1.,1.,1.,1.,1.,1.,1.,
1.,1.,1.,1.))
REPRESENTATION_ITEM('')
);
#42=(
BOUNDED_CURVE()
B_SPLINE_CURVE(5,(#1323,#1324,#1325,#1326,#1327,#1328,#1329,#1330,#1331,
#1332,#1333,#1334,#1335,#1336,#1337,#1338,#1339,#1340,#1341,#1342,#1343,
#1344,#1345,#1346,#1347,#1348,#1349,#1350,#1351,#1352,#1353,#1354,#1355,
#1356,#1357,#1358,#1359,#1360,#1361,#1362,#1363,#1364,#1365,#1366),
 .UNSPECIFIED.,.F.,.F.)
B_SPLINE_CURVE_WITH_KNOTS((6,1,1,1,1,1,1,1,1,1,1,1,1,1,1,1,1,1,1,1,1,1,
1,1,5,1,1,1,1,1,1,1,1,1,1,6),(0.322746840767005,0.342857142857143,0.371428571428571,
0.4,0.428571428571429,0.457142857142857,0.485714285714286,0.514285714285714,
0.542857142857143,0.571428571428572,0.6,0.628571428571429,0.657142857142857,
0.685714285714286,0.714285714285714,0.742857142857143,0.771428571428572,
0.8,0.828571428571429,0.857142857142857,0.885714285714286,0.914285714285714,
0.942857142857143,0.971428571428572,1.,1.02857142857143,1.05714285714286,
1.08571428571429,1.11428571428571,1.14285714285714,1.17142857142857,1.2,
1.22857142857143,1.25714285714286,1.28571428571429,1.28861320414507),
 .UNSPECIFIED.)
CURVE()
GEOMETRIC_REPRESENTATION_ITEM()
RATIONAL_B_SPLINE_CURVE((1.,1.,1.,1.,1.,1.,1.,1.,1.,1.,1.,1.,1.,1.,1.,1.,
1.,1.,1.,1.,1.,1.,1.,1.,1.,1.,1.,1.,1.,1.,1.,1.,1.,1.,1.,1.,1.,1.,1.,1.,
1.,1.,1.,1.))
REPRESENTATION_ITEM('')
);
#43=(
BOUNDED_SURFACE()
B_SPLINE_SURFACE(5,1,((#1189,#1190),(#1191,#1192),(#1193,#1194),(#1195,
#1196),(#1197,#1198),(#1199,#1200),(#1201,#1202),(#1203,#1204),(#1205,#1206),
(#1207,#1208),(#1209,#1210),(#1211,#1212),(#1213,#1214),(#1215,#1216),(#1217,
#1218),(#1219,#1220),(#1221,#1222),(#1223,#1224),(#1225,#1226),(#1227,#1228),
(#1229,#1230),(#1231,#1232),(#1233,#1234),(#1235,#1236),(#1237,#1238),(#1239,
#1240),(#1241,#1242),(#1243,#1244),(#1245,#1246),(#1247,#1248),(#1249,#1250),
(#1251,#1252),(#1253,#1254),(#1255,#1256),(#1257,#1258),(#1259,#1260),(#1261,
#1262),(#1263,#1264),(#1265,#1266),(#1267,#1268),(#1269,#1270),(#1271,#1272),
(#1273,#1274),(#1275,#1276)),.UNSPECIFIED.,.F.,.F.,.F.)
B_SPLINE_SURFACE_WITH_KNOTS((6,1,1,1,1,1,1,1,1,1,1,1,1,1,1,1,1,1,1,1,1,
1,1,1,5,1,1,1,1,1,1,1,1,1,1,6),(2,2),(0.322746840767005,0.342857142857143,
0.371428571428571,0.4,0.428571428571429,0.457142857142857,0.485714285714286,
0.514285714285714,0.542857142857143,0.571428571428572,0.6,0.628571428571429,
0.657142857142857,0.685714285714286,0.714285714285714,0.742857142857143,
0.771428571428572,0.8,0.828571428571429,0.857142857142857,0.885714285714286,
0.914285714285714,0.942857142857143,0.971428571428572,1.,1.02857142857143,
1.05714285714286,1.08571428571429,1.11428571428571,1.14285714285714,1.17142857142857,
1.2,1.22857142857143,1.25714285714286,1.28571428571429,1.28861320414507),
(0.,0.5),.UNSPECIFIED.)
GEOMETRIC_REPRESENTATION_ITEM()
RATIONAL_B_SPLINE_SURFACE(((1.,1.),(1.,1.),(1.,1.),(1.,1.),(1.,1.),(1.,
1.),(1.,1.),(1.,1.),(1.,1.),(1.,1.),(1.,1.),(1.,1.),(1.,1.),(1.,1.),(1.,
1.),(1.,1.),(1.,1.),(1.,1.),(1.,1.),(1.,1.),(1.,1.),(1.,1.),(1.,1.),(1.,
1.),(1.,1.),(1.,1.),(1.,1.),(1.,1.),(1.,1.),(1.,1.),(1.,1.),(1.,1.),(1.,
1.),(1.,1.),(1.,1.),(1.,1.),(1.,1.),(1.,1.),(1.,1.),(1.,1.),(1.,1.),(1.,
1.),(1.,1.),(1.,1.)))
REPRESENTATION_ITEM('')
SURFACE()
);
#44=PLANE('',#765);
#45=PLANE('',#766);
#46=PLANE('',#767);
#47=PLANE('',#768);
#48=PLANE('',#772);
#49=PLANE('',#773);
#50=PLANE('',#774);
#51=PLANE('',#775);
#52=PLANE('',#794);
#53=PLANE('',#795);
#54=PLANE('',#796);
#55=PLANE('',#797);
#56=PLANE('',#798);
#57=PLANE('',#799);
#58=PLANE('',#800);
#59=PLANE('',#801);
#60=PLANE('',#805);
#61=PLANE('',#806);
#62=PLANE('',#807);
#63=PLANE('',#808);
#64=PLANE('',#809);
#65=PLANE('',#810);
#66=PLANE('',#811);
#67=PLANE('',#812);
#68=PLANE('',#813);
#69=FACE_OUTER_BOUND('',#104,.T.);
#70=FACE_OUTER_BOUND('',#105,.T.);
#71=FACE_OUTER_BOUND('',#106,.T.);
#72=FACE_OUTER_BOUND('',#107,.T.);
#73=FACE_OUTER_BOUND('',#108,.T.);
#74=FACE_OUTER_BOUND('',#109,.T.);
#75=FACE_OUTER_BOUND('',#110,.T.);
#76=FACE_OUTER_BOUND('',#111,.T.);
#77=FACE_OUTER_BOUND('',#112,.T.);
#78=FACE_OUTER_BOUND('',#113,.T.);
#79=FACE_OUTER_BOUND('',#114,.T.);
#80=FACE_OUTER_BOUND('',#115,.T.);
#81=FACE_OUTER_BOUND('',#116,.T.);
#82=FACE_OUTER_BOUND('',#117,.T.);
#83=FACE_OUTER_BOUND('',#118,.T.);
#84=FACE_OUTER_BOUND('',#119,.T.);
#85=FACE_OUTER_BOUND('',#120,.T.);
#86=FACE_OUTER_BOUND('',#121,.T.);
#87=FACE_OUTER_BOUND('',#122,.T.);
#88=FACE_OUTER_BOUND('',#123,.T.);
#89=FACE_OUTER_BOUND('',#124,.T.);
#90=FACE_OUTER_BOUND('',#125,.T.);
#91=FACE_OUTER_BOUND('',#126,.T.);
#92=FACE_OUTER_BOUND('',#127,.T.);
#93=FACE_OUTER_BOUND('',#128,.T.);
#94=FACE_OUTER_BOUND('',#129,.T.);
#95=FACE_OUTER_BOUND('',#130,.T.);
#96=FACE_OUTER_BOUND('',#131,.T.);
#97=FACE_OUTER_BOUND('',#132,.T.);
#98=FACE_OUTER_BOUND('',#133,.T.);
#99=FACE_OUTER_BOUND('',#134,.T.);
#100=FACE_OUTER_BOUND('',#135,.T.);
#101=FACE_OUTER_BOUND('',#136,.T.);
#102=FACE_OUTER_BOUND('',#137,.T.);
#103=FACE_OUTER_BOUND('',#151,.T.);
#104=EDGE_LOOP('',(#506,#507,#508,#509));
#105=EDGE_LOOP('',(#510,#511,#512,#513));
#106=EDGE_LOOP('',(#514,#515,#516,#517));
#107=EDGE_LOOP('',(#518,#519,#520,#521));
#108=EDGE_LOOP('',(#522,#523,#524,#525));
#109=EDGE_LOOP('',(#526,#527,#528,#529));
#110=EDGE_LOOP('',(#530,#531,#532,#533));
#111=EDGE_LOOP('',(#534,#535,#536,#537));
#112=EDGE_LOOP('',(#538,#539,#540,#541));
#113=EDGE_LOOP('',(#542,#543,#544,#545));
#114=EDGE_LOOP('',(#546,#547,#548,#549));
#115=EDGE_LOOP('',(#550,#551,#552,#553));
#116=EDGE_LOOP('',(#554,#555,#556,#557));
#117=EDGE_LOOP('',(#558,#559,#560,#561));
#118=EDGE_LOOP('',(#562,#563,#564,#565));
#119=EDGE_LOOP('',(#566,#567,#568,#569));
#120=EDGE_LOOP('',(#570,#571,#572,#573));
#121=EDGE_LOOP('',(#574,#575,#576,#577));
#122=EDGE_LOOP('',(#578,#579,#580,#581));
#123=EDGE_LOOP('',(#582,#583,#584,#585));
#124=EDGE_LOOP('',(#586,#587,#588,#589));
#125=EDGE_LOOP('',(#590,#591,#592,#593));
#126=EDGE_LOOP('',(#594,#595,#596,#597));
#127=EDGE_LOOP('',(#598,#599,#600,#601));
#128=EDGE_LOOP('',(#602,#603,#604,#605));
#129=EDGE_LOOP('',(#606,#607,#608,#609));
#130=EDGE_LOOP('',(#610,#611,#612,#613));
#131=EDGE_LOOP('',(#614,#615,#616,#617));
#132=EDGE_LOOP('',(#618,#619,#620,#621));
#133=EDGE_LOOP('',(#622,#623,#624,#625));
#134=EDGE_LOOP('',(#626,#627,#628,#629));
#135=EDGE_LOOP('',(#630,#631,#632,#633));
#136=EDGE_LOOP('',(#634,#635,#636,#637));
#137=EDGE_LOOP('',(#638,#639,#640,#641,#642,#643,#644,#645));
#138=EDGE_LOOP('',(#646));
#139=EDGE_LOOP('',(#647,#648,#649,#650));
#140=EDGE_LOOP('',(#651,#652,#653,#654));
#141=EDGE_LOOP('',(#655));
#142=EDGE_LOOP('',(#656));
#143=EDGE_LOOP('',(#657));
#144=EDGE_LOOP('',(#658));
#145=EDGE_LOOP('',(#659));
#146=EDGE_LOOP('',(#660));
#147=EDGE_LOOP('',(#661,#662,#663,#664));
#148=EDGE_LOOP('',(#665));
#149=EDGE_LOOP('',(#666,#667,#668,#669));
#150=EDGE_LOOP('',(#670));
#151=EDGE_LOOP('',(#671,#672,#673,#674,#675,#676,#677,#678));
#152=EDGE_LOOP('',(#679));
#153=EDGE_LOOP('',(#680,#681,#682,#683));
#154=EDGE_LOOP('',(#684,#685,#686,#687));
#155=EDGE_LOOP('',(#688));
#156=EDGE_LOOP('',(#689));
#157=EDGE_LOOP('',(#690));
#158=EDGE_LOOP('',(#691));
#159=EDGE_LOOP('',(#692));
#160=EDGE_LOOP('',(#693));
#161=EDGE_LOOP('',(#694,#695,#696,#697));
#162=EDGE_LOOP('',(#698));
#163=EDGE_LOOP('',(#699,#700,#701,#702));
#164=EDGE_LOOP('',(#703));
#165=LINE('',#1004,#244);
#166=LINE('',#1009,#245);
#167=LINE('',#1011,#246);
#168=LINE('',#1013,#247);
#169=LINE('',#1014,#248);
#170=LINE('',#1017,#249);
#171=LINE('',#1019,#250);
#172=LINE('',#1020,#251);
#173=LINE('',#1023,#252);
#174=LINE('',#1025,#253);
#175=LINE('',#1026,#254);
#176=LINE('',#1028,#255);
#177=LINE('',#1029,#256);
#178=LINE('',#1034,#257);
#179=LINE('',#1039,#258);
#180=LINE('',#1041,#259);
#181=LINE('',#1043,#260);
#182=LINE('',#1044,#261);
#183=LINE('',#1047,#262);
#184=LINE('',#1049,#263);
#185=LINE('',#1050,#264);
#186=LINE('',#1053,#265);
#187=LINE('',#1055,#266);
#188=LINE('',#1056,#267);
#189=LINE('',#1058,#268);
#190=LINE('',#1059,#269);
#191=LINE('',#1064,#270);
#192=LINE('',#1070,#271);
#193=LINE('',#1076,#272);
#194=LINE('',#1082,#273);
#195=LINE('',#1088,#274);
#196=LINE('',#1094,#275);
#197=LINE('',#1099,#276);
#198=LINE('',#1101,#277);
#199=LINE('',#1103,#278);
#200=LINE('',#1104,#279);
#201=LINE('',#1107,#280);
#202=LINE('',#1109,#281);
#203=LINE('',#1110,#282);
#204=LINE('',#1113,#283);
#205=LINE('',#1115,#284);
#206=LINE('',#1116,#285);
#207=LINE('',#1118,#286);
#208=LINE('',#1119,#287);
#209=LINE('',#1123,#288);
#210=LINE('',#1125,#289);
#211=LINE('',#1127,#290);
#212=LINE('',#1128,#291);
#213=LINE('',#1131,#292);
#214=LINE('',#1133,#293);
#215=LINE('',#1134,#294);
#216=LINE('',#1137,#295);
#217=LINE('',#1139,#296);
#218=LINE('',#1140,#297);
#219=LINE('',#1142,#298);
#220=LINE('',#1143,#299);
#221=LINE('',#1148,#300);
#222=LINE('',#1153,#301);
#223=LINE('',#1155,#302);
#224=LINE('',#1157,#303);
#225=LINE('',#1158,#304);
#226=LINE('',#1161,#305);
#227=LINE('',#1163,#306);
#228=LINE('',#1164,#307);
#229=LINE('',#1167,#308);
#230=LINE('',#1169,#309);
#231=LINE('',#1170,#310);
#232=LINE('',#1173,#311);
#233=LINE('',#1175,#312);
#234=LINE('',#1176,#313);
#235=LINE('',#1179,#314);
#236=LINE('',#1181,#315);
#237=LINE('',#1182,#316);
#238=LINE('',#1185,#317);
#239=LINE('',#1187,#318);
#240=LINE('',#1188,#319);
#241=LINE('',#1367,#320);
#242=LINE('',#1369,#321);
#243=LINE('',#1370,#322);
#244=VECTOR('',#820,15.);
#245=VECTOR('',#825,10.);
#246=VECTOR('',#826,10.);
#247=VECTOR('',#827,10.);
#248=VECTOR('',#828,10.);
#249=VECTOR('',#831,10.);
#250=VECTOR('',#832,10.);
#251=VECTOR('',#833,10.);
#252=VECTOR('',#836,10.);
#253=VECTOR('',#837,10.);
#254=VECTOR('',#838,10.);
#255=VECTOR('',#841,10.);
#256=VECTOR('',#842,10.);
#257=VECTOR('',#847,15.);
#258=VECTOR('',#852,10.);
#259=VECTOR('',#853,10.);
#260=VECTOR('',#854,10.);
#261=VECTOR('',#855,10.);
#262=VECTOR('',#858,10.);
#263=VECTOR('',#859,10.);
#264=VECTOR('',#860,10.);
#265=VECTOR('',#863,10.);
#266=VECTOR('',#864,10.);
#267=VECTOR('',#865,10.);
#268=VECTOR('',#868,10.);
#269=VECTOR('',#869,10.);
#270=VECTOR('',#874,1.6);
#271=VECTOR('',#881,1.6);
#272=VECTOR('',#888,3.45251557218274);
#273=VECTOR('',#895,3.39562524580312);
#274=VECTOR('',#902,1.6);
#275=VECTOR('',#909,11.5271131182979);
#276=VECTOR('',#914,10.);
#277=VECTOR('',#915,10.);
#278=VECTOR('',#916,10.);
#279=VECTOR('',#917,10.);
#280=VECTOR('',#920,10.);
#281=VECTOR('',#921,10.);
#282=VECTOR('',#922,10.);
#283=VECTOR('',#925,10.);
#284=VECTOR('',#926,10.);
#285=VECTOR('',#927,10.);
#286=VECTOR('',#930,10.);
#287=VECTOR('',#931,10.);
#288=VECTOR('',#934,10.);
#289=VECTOR('',#935,10.);
#290=VECTOR('',#936,10.);
#291=VECTOR('',#937,10.);
#292=VECTOR('',#940,10.);
#293=VECTOR('',#941,10.);
#294=VECTOR('',#942,10.);
#295=VECTOR('',#945,10.);
#296=VECTOR('',#946,10.);
#297=VECTOR('',#947,10.);
#298=VECTOR('',#950,10.);
#299=VECTOR('',#951,10.);
#300=VECTOR('',#956,1.6);
#301=VECTOR('',#961,10.);
#302=VECTOR('',#962,10.);
#303=VECTOR('',#963,10.);
#304=VECTOR('',#964,10.);
#305=VECTOR('',#967,10.);
#306=VECTOR('',#968,10.);
#307=VECTOR('',#969,10.);
#308=VECTOR('',#972,10.);
#309=VECTOR('',#973,10.);
#310=VECTOR('',#974,10.);
#311=VECTOR('',#977,10.);
#312=VECTOR('',#978,10.);
#313=VECTOR('',#979,10.);
#314=VECTOR('',#982,10.);
#315=VECTOR('',#983,10.);
#316=VECTOR('',#984,10.);
#317=VECTOR('',#987,10.);
#318=VECTOR('',#988,10.);
#319=VECTOR('',#989,10.);
#320=VECTOR('',#990,10.);
#321=VECTOR('',#993,10.);
#322=VECTOR('',#994,10.);
#323=CIRCLE('',#763,15.);
#324=CIRCLE('',#764,15.);
#325=CIRCLE('',#770,15.);
#326=CIRCLE('',#771,15.);
#327=CIRCLE('',#777,1.6);
#328=CIRCLE('',#778,1.6);
#329=CIRCLE('',#780,1.6);
#330=CIRCLE('',#781,1.6);
#331=CIRCLE('',#783,3.45251557218274);
#332=CIRCLE('',#784,3.45251557218274);
#333=CIRCLE('',#786,3.39562524580312);
#334=CIRCLE('',#787,3.39562524580312);
#335=CIRCLE('',#789,1.6);
#336=CIRCLE('',#790,1.6);
#337=CIRCLE('',#792,11.5271131182979);
#338=CIRCLE('',#793,11.5271131182979);
#339=CIRCLE('',#803,1.6);
#340=CIRCLE('',#804,1.6);
#341=VERTEX_POINT('',#1001);
#342=VERTEX_POINT('',#1003);
#343=VERTEX_POINT('',#1007);
#344=VERTEX_POINT('',#1008);
#345=VERTEX_POINT('',#1010);
#346=VERTEX_POINT('',#1012);
#347=VERTEX_POINT('',#1016);
#348=VERTEX_POINT('',#1018);
#349=VERTEX_POINT('',#1022);
#350=VERTEX_POINT('',#1024);
#351=VERTEX_POINT('',#1031);
#352=VERTEX_POINT('',#1033);
#353=VERTEX_POINT('',#1037);
#354=VERTEX_POINT('',#1038);
#355=VERTEX_POINT('',#1040);
#356=VERTEX_POINT('',#1042);
#357=VERTEX_POINT('',#1046);
#358=VERTEX_POINT('',#1048);
#359=VERTEX_POINT('',#1052);
#360=VERTEX_POINT('',#1054);
#361=VERTEX_POINT('',#1061);
#362=VERTEX_POINT('',#1063);
#363=VERTEX_POINT('',#1067);
#364=VERTEX_POINT('',#1069);
#365=VERTEX_POINT('',#1073);
#366=VERTEX_POINT('',#1075);
#367=VERTEX_POINT('',#1079);
#368=VERTEX_POINT('',#1081);
#369=VERTEX_POINT('',#1085);
#370=VERTEX_POINT('',#1087);
#371=VERTEX_POINT('',#1091);
#372=VERTEX_POINT('',#1093);
#373=VERTEX_POINT('',#1097);
#374=VERTEX_POINT('',#1098);
#375=VERTEX_POINT('',#1100);
#376=VERTEX_POINT('',#1102);
#377=VERTEX_POINT('',#1106);
#378=VERTEX_POINT('',#1108);
#379=VERTEX_POINT('',#1112);
#380=VERTEX_POINT('',#1114);
#381=VERTEX_POINT('',#1121);
#382=VERTEX_POINT('',#1122);
#383=VERTEX_POINT('',#1124);
#384=VERTEX_POINT('',#1126);
#385=VERTEX_POINT('',#1130);
#386=VERTEX_POINT('',#1132);
#387=VERTEX_POINT('',#1136);
#388=VERTEX_POINT('',#1138);
#389=VERTEX_POINT('',#1145);
#390=VERTEX_POINT('',#1147);
#391=VERTEX_POINT('',#1151);
#392=VERTEX_POINT('',#1152);
#393=VERTEX_POINT('',#1154);
#394=VERTEX_POINT('',#1156);
#395=VERTEX_POINT('',#1160);
#396=VERTEX_POINT('',#1162);
#397=VERTEX_POINT('',#1166);
#398=VERTEX_POINT('',#1168);
#399=VERTEX_POINT('',#1172);
#400=VERTEX_POINT('',#1174);
#401=VERTEX_POINT('',#1178);
#402=VERTEX_POINT('',#1180);
#403=VERTEX_POINT('',#1184);
#404=VERTEX_POINT('',#1186);
#405=VERTEX_POINT('',#1277);
#406=VERTEX_POINT('',#1322);
#407=EDGE_CURVE('',#341,#341,#323,.T.);
#408=EDGE_CURVE('',#341,#342,#165,.T.);
#409=EDGE_CURVE('',#342,#342,#324,.T.);
#410=EDGE_CURVE('',#343,#344,#166,.T.);
#411=EDGE_CURVE('',#344,#345,#167,.T.);
#412=EDGE_CURVE('',#346,#345,#168,.T.);
#413=EDGE_CURVE('',#343,#346,#169,.T.);
#414=EDGE_CURVE('',#347,#343,#170,.T.);
#415=EDGE_CURVE('',#348,#346,#171,.T.);
#416=EDGE_CURVE('',#347,#348,#172,.T.);
#417=EDGE_CURVE('',#349,#347,#173,.T.);
#418=EDGE_CURVE('',#350,#348,#174,.T.);
#419=EDGE_CURVE('',#349,#350,#175,.T.);
#420=EDGE_CURVE('',#344,#349,#176,.T.);
#421=EDGE_CURVE('',#345,#350,#177,.T.);
#422=EDGE_CURVE('',#351,#351,#325,.T.);
#423=EDGE_CURVE('',#351,#352,#178,.T.);
#424=EDGE_CURVE('',#352,#352,#326,.T.);
#425=EDGE_CURVE('',#353,#354,#179,.T.);
#426=EDGE_CURVE('',#354,#355,#180,.T.);
#427=EDGE_CURVE('',#356,#355,#181,.T.);
#428=EDGE_CURVE('',#353,#356,#182,.T.);
#429=EDGE_CURVE('',#357,#353,#183,.T.);
#430=EDGE_CURVE('',#358,#356,#184,.T.);
#431=EDGE_CURVE('',#357,#358,#185,.T.);
#432=EDGE_CURVE('',#359,#357,#186,.T.);
#433=EDGE_CURVE('',#360,#358,#187,.T.);
#434=EDGE_CURVE('',#359,#360,#188,.T.);
#435=EDGE_CURVE('',#354,#359,#189,.T.);
#436=EDGE_CURVE('',#355,#360,#190,.T.);
#437=EDGE_CURVE('',#361,#361,#327,.T.);
#438=EDGE_CURVE('',#361,#362,#191,.T.);
#439=EDGE_CURVE('',#362,#362,#328,.T.);
#440=EDGE_CURVE('',#363,#363,#329,.T.);
#441=EDGE_CURVE('',#363,#364,#192,.T.);
#442=EDGE_CURVE('',#364,#364,#330,.T.);
#443=EDGE_CURVE('',#365,#365,#331,.T.);
#444=EDGE_CURVE('',#365,#366,#193,.T.);
#445=EDGE_CURVE('',#366,#366,#332,.T.);
#446=EDGE_CURVE('',#367,#367,#333,.T.);
#447=EDGE_CURVE('',#367,#368,#194,.T.);
#448=EDGE_CURVE('',#368,#368,#334,.T.);
#449=EDGE_CURVE('',#369,#369,#335,.T.);
#450=EDGE_CURVE('',#369,#370,#195,.T.);
#451=EDGE_CURVE('',#370,#370,#336,.T.);
#452=EDGE_CURVE('',#371,#371,#337,.T.);
#453=EDGE_CURVE('',#371,#372,#196,.T.);
#454=EDGE_CURVE('',#372,#372,#338,.T.);
#455=EDGE_CURVE('',#373,#374,#197,.T.);
#456=EDGE_CURVE('',#374,#375,#198,.T.);
#457=EDGE_CURVE('',#376,#375,#199,.T.);
#458=EDGE_CURVE('',#373,#376,#200,.T.);
#459=EDGE_CURVE('',#377,#373,#201,.T.);
#460=EDGE_CURVE('',#378,#376,#202,.T.);
#461=EDGE_CURVE('',#377,#378,#203,.T.);
#462=EDGE_CURVE('',#379,#377,#204,.T.);
#463=EDGE_CURVE('',#380,#378,#205,.T.);
#464=EDGE_CURVE('',#379,#380,#206,.T.);
#465=EDGE_CURVE('',#374,#379,#207,.T.);
#466=EDGE_CURVE('',#375,#380,#208,.T.);
#467=EDGE_CURVE('',#381,#382,#209,.T.);
#468=EDGE_CURVE('',#382,#383,#210,.T.);
#469=EDGE_CURVE('',#384,#383,#211,.T.);
#470=EDGE_CURVE('',#381,#384,#212,.T.);
#471=EDGE_CURVE('',#385,#381,#213,.T.);
#472=EDGE_CURVE('',#386,#384,#214,.T.);
#473=EDGE_CURVE('',#385,#386,#215,.T.);
#474=EDGE_CURVE('',#387,#385,#216,.T.);
#475=EDGE_CURVE('',#388,#386,#217,.T.);
#476=EDGE_CURVE('',#387,#388,#218,.T.);
#477=EDGE_CURVE('',#382,#387,#219,.T.);
#478=EDGE_CURVE('',#383,#388,#220,.T.);
#479=EDGE_CURVE('',#389,#389,#339,.T.);
#480=EDGE_CURVE('',#389,#390,#221,.T.);
#481=EDGE_CURVE('',#390,#390,#340,.T.);
#482=EDGE_CURVE('',#391,#392,#222,.T.);
#483=EDGE_CURVE('',#392,#393,#223,.T.);
#484=EDGE_CURVE('',#394,#393,#224,.T.);
#485=EDGE_CURVE('',#391,#394,#225,.T.);
#486=EDGE_CURVE('',#391,#395,#226,.T.);
#487=EDGE_CURVE('',#396,#394,#227,.T.);
#488=EDGE_CURVE('',#395,#396,#228,.T.);
#489=EDGE_CURVE('',#395,#397,#229,.T.);
#490=EDGE_CURVE('',#398,#396,#230,.T.);
#491=EDGE_CURVE('',#397,#398,#231,.T.);
#492=EDGE_CURVE('',#397,#399,#232,.T.);
#493=EDGE_CURVE('',#400,#398,#233,.T.);
#494=EDGE_CURVE('',#399,#400,#234,.T.);
#495=EDGE_CURVE('',#399,#401,#235,.T.);
#496=EDGE_CURVE('',#402,#400,#236,.T.);
#497=EDGE_CURVE('',#401,#402,#237,.T.);
#498=EDGE_CURVE('',#401,#403,#238,.T.);
#499=EDGE_CURVE('',#404,#402,#239,.T.);
#500=EDGE_CURVE('',#403,#404,#240,.T.);
#501=EDGE_CURVE('',#405,#403,#41,.T.);
#502=EDGE_CURVE('',#406,#404,#42,.T.);
#503=EDGE_CURVE('',#405,#406,#241,.T.);
#504=EDGE_CURVE('',#392,#405,#242,.T.);
#505=EDGE_CURVE('',#393,#406,#243,.T.);
#506=ORIENTED_EDGE('',*,*,#407,.F.);
#507=ORIENTED_EDGE('',*,*,#408,.T.);
#508=ORIENTED_EDGE('',*,*,#409,.T.);
#509=ORIENTED_EDGE('',*,*,#408,.F.);
#510=ORIENTED_EDGE('',*,*,#410,.T.);
#511=ORIENTED_EDGE('',*,*,#411,.T.);
#512=ORIENTED_EDGE('',*,*,#412,.F.);
#513=ORIENTED_EDGE('',*,*,#413,.F.);
#514=ORIENTED_EDGE('',*,*,#414,.T.);
#515=ORIENTED_EDGE('',*,*,#413,.T.);
#516=ORIENTED_EDGE('',*,*,#415,.F.);
#517=ORIENTED_EDGE('',*,*,#416,.F.);
#518=ORIENTED_EDGE('',*,*,#417,.T.);
#519=ORIENTED_EDGE('',*,*,#416,.T.);
#520=ORIENTED_EDGE('',*,*,#418,.F.);
#521=ORIENTED_EDGE('',*,*,#419,.F.);
#522=ORIENTED_EDGE('',*,*,#420,.T.);
#523=ORIENTED_EDGE('',*,*,#419,.T.);
#524=ORIENTED_EDGE('',*,*,#421,.F.);
#525=ORIENTED_EDGE('',*,*,#411,.F.);
#526=ORIENTED_EDGE('',*,*,#422,.F.);
#527=ORIENTED_EDGE('',*,*,#423,.T.);
#528=ORIENTED_EDGE('',*,*,#424,.T.);
#529=ORIENTED_EDGE('',*,*,#423,.F.);
#530=ORIENTED_EDGE('',*,*,#425,.T.);
#531=ORIENTED_EDGE('',*,*,#426,.T.);
#532=ORIENTED_EDGE('',*,*,#427,.F.);
#533=ORIENTED_EDGE('',*,*,#428,.F.);
#534=ORIENTED_EDGE('',*,*,#429,.T.);
#535=ORIENTED_EDGE('',*,*,#428,.T.);
#536=ORIENTED_EDGE('',*,*,#430,.F.);
#537=ORIENTED_EDGE('',*,*,#431,.F.);
#538=ORIENTED_EDGE('',*,*,#432,.T.);
#539=ORIENTED_EDGE('',*,*,#431,.T.);
#540=ORIENTED_EDGE('',*,*,#433,.F.);
#541=ORIENTED_EDGE('',*,*,#434,.F.);
#542=ORIENTED_EDGE('',*,*,#435,.T.);
#543=ORIENTED_EDGE('',*,*,#434,.T.);
#544=ORIENTED_EDGE('',*,*,#436,.F.);
#545=ORIENTED_EDGE('',*,*,#426,.F.);
#546=ORIENTED_EDGE('',*,*,#437,.F.);
#547=ORIENTED_EDGE('',*,*,#438,.T.);
#548=ORIENTED_EDGE('',*,*,#439,.T.);
#549=ORIENTED_EDGE('',*,*,#438,.F.);
#550=ORIENTED_EDGE('',*,*,#440,.F.);
#551=ORIENTED_EDGE('',*,*,#441,.T.);
#552=ORIENTED_EDGE('',*,*,#442,.T.);
#553=ORIENTED_EDGE('',*,*,#441,.F.);
#554=ORIENTED_EDGE('',*,*,#443,.F.);
#555=ORIENTED_EDGE('',*,*,#444,.T.);
#556=ORIENTED_EDGE('',*,*,#445,.T.);
#557=ORIENTED_EDGE('',*,*,#444,.F.);
#558=ORIENTED_EDGE('',*,*,#446,.F.);
#559=ORIENTED_EDGE('',*,*,#447,.T.);
#560=ORIENTED_EDGE('',*,*,#448,.T.);
#561=ORIENTED_EDGE('',*,*,#447,.F.);
#562=ORIENTED_EDGE('',*,*,#449,.F.);
#563=ORIENTED_EDGE('',*,*,#450,.T.);
#564=ORIENTED_EDGE('',*,*,#451,.T.);
#565=ORIENTED_EDGE('',*,*,#450,.F.);
#566=ORIENTED_EDGE('',*,*,#452,.F.);
#567=ORIENTED_EDGE('',*,*,#453,.T.);
#568=ORIENTED_EDGE('',*,*,#454,.T.);
#569=ORIENTED_EDGE('',*,*,#453,.F.);
#570=ORIENTED_EDGE('',*,*,#455,.T.);
#571=ORIENTED_EDGE('',*,*,#456,.T.);
#572=ORIENTED_EDGE('',*,*,#457,.F.);
#573=ORIENTED_EDGE('',*,*,#458,.F.);
#574=ORIENTED_EDGE('',*,*,#459,.T.);
#575=ORIENTED_EDGE('',*,*,#458,.T.);
#576=ORIENTED_EDGE('',*,*,#460,.F.);
#577=ORIENTED_EDGE('',*,*,#461,.F.);
#578=ORIENTED_EDGE('',*,*,#462,.T.);
#579=ORIENTED_EDGE('',*,*,#461,.T.);
#580=ORIENTED_EDGE('',*,*,#463,.F.);
#581=ORIENTED_EDGE('',*,*,#464,.F.);
#582=ORIENTED_EDGE('',*,*,#465,.T.);
#583=ORIENTED_EDGE('',*,*,#464,.T.);
#584=ORIENTED_EDGE('',*,*,#466,.F.);
#585=ORIENTED_EDGE('',*,*,#456,.F.);
#586=ORIENTED_EDGE('',*,*,#467,.T.);
#587=ORIENTED_EDGE('',*,*,#468,.T.);
#588=ORIENTED_EDGE('',*,*,#469,.F.);
#589=ORIENTED_EDGE('',*,*,#470,.F.);
#590=ORIENTED_EDGE('',*,*,#471,.T.);
#591=ORIENTED_EDGE('',*,*,#470,.T.);
#592=ORIENTED_EDGE('',*,*,#472,.F.);
#593=ORIENTED_EDGE('',*,*,#473,.F.);
#594=ORIENTED_EDGE('',*,*,#474,.T.);
#595=ORIENTED_EDGE('',*,*,#473,.T.);
#596=ORIENTED_EDGE('',*,*,#475,.F.);
#597=ORIENTED_EDGE('',*,*,#476,.F.);
#598=ORIENTED_EDGE('',*,*,#477,.T.);
#599=ORIENTED_EDGE('',*,*,#476,.T.);
#600=ORIENTED_EDGE('',*,*,#478,.F.);
#601=ORIENTED_EDGE('',*,*,#468,.F.);
#602=ORIENTED_EDGE('',*,*,#479,.F.);
#603=ORIENTED_EDGE('',*,*,#480,.T.);
#604=ORIENTED_EDGE('',*,*,#481,.T.);
#605=ORIENTED_EDGE('',*,*,#480,.F.);
#606=ORIENTED_EDGE('',*,*,#482,.T.);
#607=ORIENTED_EDGE('',*,*,#483,.T.);
#608=ORIENTED_EDGE('',*,*,#484,.F.);
#609=ORIENTED_EDGE('',*,*,#485,.F.);
#610=ORIENTED_EDGE('',*,*,#486,.F.);
#611=ORIENTED_EDGE('',*,*,#485,.T.);
#612=ORIENTED_EDGE('',*,*,#487,.F.);
#613=ORIENTED_EDGE('',*,*,#488,.F.);
#614=ORIENTED_EDGE('',*,*,#489,.F.);
#615=ORIENTED_EDGE('',*,*,#488,.T.);
#616=ORIENTED_EDGE('',*,*,#490,.F.);
#617=ORIENTED_EDGE('',*,*,#491,.F.);
#618=ORIENTED_EDGE('',*,*,#492,.F.);
#619=ORIENTED_EDGE('',*,*,#491,.T.);
#620=ORIENTED_EDGE('',*,*,#493,.F.);
#621=ORIENTED_EDGE('',*,*,#494,.F.);
#622=ORIENTED_EDGE('',*,*,#495,.F.);
#623=ORIENTED_EDGE('',*,*,#494,.T.);
#624=ORIENTED_EDGE('',*,*,#496,.F.);
#625=ORIENTED_EDGE('',*,*,#497,.F.);
#626=ORIENTED_EDGE('',*,*,#498,.F.);
#627=ORIENTED_EDGE('',*,*,#497,.T.);
#628=ORIENTED_EDGE('',*,*,#499,.F.);
#629=ORIENTED_EDGE('',*,*,#500,.F.);
#630=ORIENTED_EDGE('',*,*,#501,.T.);
#631=ORIENTED_EDGE('',*,*,#500,.T.);
#632=ORIENTED_EDGE('',*,*,#502,.F.);
#633=ORIENTED_EDGE('',*,*,#503,.F.);
#634=ORIENTED_EDGE('',*,*,#504,.T.);
#635=ORIENTED_EDGE('',*,*,#503,.T.);
#636=ORIENTED_EDGE('',*,*,#505,.F.);
#637=ORIENTED_EDGE('',*,*,#483,.F.);
#638=ORIENTED_EDGE('',*,*,#505,.T.);
#639=ORIENTED_EDGE('',*,*,#502,.T.);
#640=ORIENTED_EDGE('',*,*,#499,.T.);
#641=ORIENTED_EDGE('',*,*,#496,.T.);
#642=ORIENTED_EDGE('',*,*,#493,.T.);
#643=ORIENTED_EDGE('',*,*,#490,.T.);
#644=ORIENTED_EDGE('',*,*,#487,.T.);
#645=ORIENTED_EDGE('',*,*,#484,.T.);
#646=ORIENTED_EDGE('',*,*,#479,.T.);
#647=ORIENTED_EDGE('',*,*,#478,.T.);
#648=ORIENTED_EDGE('',*,*,#475,.T.);
#649=ORIENTED_EDGE('',*,*,#472,.T.);
#650=ORIENTED_EDGE('',*,*,#469,.T.);
#651=ORIENTED_EDGE('',*,*,#466,.T.);
#652=ORIENTED_EDGE('',*,*,#463,.T.);
#653=ORIENTED_EDGE('',*,*,#460,.T.);
#654=ORIENTED_EDGE('',*,*,#457,.T.);
#655=ORIENTED_EDGE('',*,*,#452,.T.);
#656=ORIENTED_EDGE('',*,*,#449,.T.);
#657=ORIENTED_EDGE('',*,*,#446,.T.);
#658=ORIENTED_EDGE('',*,*,#443,.T.);
#659=ORIENTED_EDGE('',*,*,#440,.T.);
#660=ORIENTED_EDGE('',*,*,#437,.T.);
#661=ORIENTED_EDGE('',*,*,#436,.T.);
#662=ORIENTED_EDGE('',*,*,#433,.T.);
#663=ORIENTED_EDGE('',*,*,#430,.T.);
#664=ORIENTED_EDGE('',*,*,#427,.T.);
#665=ORIENTED_EDGE('',*,*,#422,.T.);
#666=ORIENTED_EDGE('',*,*,#421,.T.);
#667=ORIENTED_EDGE('',*,*,#418,.T.);
#668=ORIENTED_EDGE('',*,*,#415,.T.);
#669=ORIENTED_EDGE('',*,*,#412,.T.);
#670=ORIENTED_EDGE('',*,*,#407,.T.);
#671=ORIENTED_EDGE('',*,*,#504,.F.);
#672=ORIENTED_EDGE('',*,*,#482,.F.);
#673=ORIENTED_EDGE('',*,*,#486,.T.);
#674=ORIENTED_EDGE('',*,*,#489,.T.);
#675=ORIENTED_EDGE('',*,*,#492,.T.);
#676=ORIENTED_EDGE('',*,*,#495,.T.);
#677=ORIENTED_EDGE('',*,*,#498,.T.);
#678=ORIENTED_EDGE('',*,*,#501,.F.);
#679=ORIENTED_EDGE('',*,*,#481,.F.);
#680=ORIENTED_EDGE('',*,*,#477,.F.);
#681=ORIENTED_EDGE('',*,*,#467,.F.);
#682=ORIENTED_EDGE('',*,*,#471,.F.);
#683=ORIENTED_EDGE('',*,*,#474,.F.);
#684=ORIENTED_EDGE('',*,*,#465,.F.);
#685=ORIENTED_EDGE('',*,*,#455,.F.);
#686=ORIENTED_EDGE('',*,*,#459,.F.);
#687=ORIENTED_EDGE('',*,*,#462,.F.);
#688=ORIENTED_EDGE('',*,*,#454,.F.);
#689=ORIENTED_EDGE('',*,*,#451,.F.);
#690=ORIENTED_EDGE('',*,*,#448,.F.);
#691=ORIENTED_EDGE('',*,*,#445,.F.);
#692=ORIENTED_EDGE('',*,*,#442,.F.);
#693=ORIENTED_EDGE('',*,*,#439,.F.);
#694=ORIENTED_EDGE('',*,*,#435,.F.);
#695=ORIENTED_EDGE('',*,*,#425,.F.);
#696=ORIENTED_EDGE('',*,*,#429,.F.);
#697=ORIENTED_EDGE('',*,*,#432,.F.);
#698=ORIENTED_EDGE('',*,*,#424,.F.);
#699=ORIENTED_EDGE('',*,*,#420,.F.);
#700=ORIENTED_EDGE('',*,*,#410,.F.);
#701=ORIENTED_EDGE('',*,*,#414,.F.);
#702=ORIENTED_EDGE('',*,*,#417,.F.);
#703=ORIENTED_EDGE('',*,*,#409,.F.);
#704=CYLINDRICAL_SURFACE('',#762,15.);
#705=CYLINDRICAL_SURFACE('',#769,15.);
#706=CYLINDRICAL_SURFACE('',#776,1.6);
#707=CYLINDRICAL_SURFACE('',#779,1.6);
#708=CYLINDRICAL_SURFACE('',#782,3.45251557218274);
#709=CYLINDRICAL_SURFACE('',#785,3.39562524580312);
#710=CYLINDRICAL_SURFACE('',#788,1.6);
#711=CYLINDRICAL_SURFACE('',#791,11.5271131182979);
#712=CYLINDRICAL_SURFACE('',#802,1.6);
#713=ADVANCED_FACE('',(#69),#704,.F.);
#714=ADVANCED_FACE('',(#70),#44,.T.);
#715=ADVANCED_FACE('',(#71),#45,.T.);
#716=ADVANCED_FACE('',(#72),#46,.T.);
#717=ADVANCED_FACE('',(#73),#47,.T.);
#718=ADVANCED_FACE('',(#74),#705,.F.);
#719=ADVANCED_FACE('',(#75),#48,.T.);
#720=ADVANCED_FACE('',(#76),#49,.T.);
#721=ADVANCED_FACE('',(#77),#50,.T.);
#722=ADVANCED_FACE('',(#78),#51,.T.);
#723=ADVANCED_FACE('',(#79),#706,.F.);
#724=ADVANCED_FACE('',(#80),#707,.F.);
#725=ADVANCED_FACE('',(#81),#708,.F.);
#726=ADVANCED_FACE('',(#82),#709,.F.);
#727=ADVANCED_FACE('',(#83),#710,.F.);
#728=ADVANCED_FACE('',(#84),#711,.F.);
#729=ADVANCED_FACE('',(#85),#52,.T.);
#730=ADVANCED_FACE('',(#86),#53,.T.);
#731=ADVANCED_FACE('',(#87),#54,.T.);
#732=ADVANCED_FACE('',(#88),#55,.T.);
#733=ADVANCED_FACE('',(#89),#56,.T.);
#734=ADVANCED_FACE('',(#90),#57,.T.);
#735=ADVANCED_FACE('',(#91),#58,.T.);
#736=ADVANCED_FACE('',(#92),#59,.T.);
#737=ADVANCED_FACE('',(#93),#712,.F.);
#738=ADVANCED_FACE('',(#94),#60,.T.);
#739=ADVANCED_FACE('',(#95),#61,.T.);
#740=ADVANCED_FACE('',(#96),#62,.T.);
#741=ADVANCED_FACE('',(#97),#63,.T.);
#742=ADVANCED_FACE('',(#98),#64,.T.);
#743=ADVANCED_FACE('',(#99),#65,.T.);
#744=ADVANCED_FACE('',(#100),#43,.T.);
#745=ADVANCED_FACE('',(#101),#66,.T.);
#746=ADVANCED_FACE('',(#102,#15,#16,#17,#18,#19,#20,#21,#22,#23,#24,#25,
#26,#27),#67,.T.);
#747=ADVANCED_FACE('',(#103,#28,#29,#30,#31,#32,#33,#34,#35,#36,#37,#38,
#39,#40),#68,.F.);
#748=CLOSED_SHELL('',(#713,#714,#715,#716,#717,#718,#719,#720,#721,#722,
#723,#724,#725,#726,#727,#728,#729,#730,#731,#732,#733,#734,#735,#736,#737,
#738,#739,#740,#741,#742,#743,#744,#745,#746,#747));
#749=DERIVED_UNIT_ELEMENT(#751,1.);
#750=DERIVED_UNIT_ELEMENT(#1378,-3.);
#751=(
MASS_UNIT()
NAMED_UNIT(*)
SI_UNIT(.KILO.,.GRAM.)
);
#752=DERIVED_UNIT((#749,#750));
#753=MEASURE_REPRESENTATION_ITEM('density measure',
POSITIVE_RATIO_MEASURE(7850.),#752);
#754=PROPERTY_DEFINITION_REPRESENTATION(#759,#756);
#755=PROPERTY_DEFINITION_REPRESENTATION(#760,#757);
#756=REPRESENTATION('material name',(#758),#1375);
#757=REPRESENTATION('density',(#753),#1375);
#758=DESCRIPTIVE_REPRESENTATION_ITEM('Steel','Steel');
#759=PROPERTY_DEFINITION('material property','material name',#1385);
#760=PROPERTY_DEFINITION('material property','density of part',#1385);
#761=AXIS2_PLACEMENT_3D('',#999,#814,#815);
#762=AXIS2_PLACEMENT_3D('',#1000,#816,#817);
#763=AXIS2_PLACEMENT_3D('',#1002,#818,#819);
#764=AXIS2_PLACEMENT_3D('',#1005,#821,#822);
#765=AXIS2_PLACEMENT_3D('',#1006,#823,#824);
#766=AXIS2_PLACEMENT_3D('',#1015,#829,#830);
#767=AXIS2_PLACEMENT_3D('',#1021,#834,#835);
#768=AXIS2_PLACEMENT_3D('',#1027,#839,#840);
#769=AXIS2_PLACEMENT_3D('',#1030,#843,#844);
#770=AXIS2_PLACEMENT_3D('',#1032,#845,#846);
#771=AXIS2_PLACEMENT_3D('',#1035,#848,#849);
#772=AXIS2_PLACEMENT_3D('',#1036,#850,#851);
#773=AXIS2_PLACEMENT_3D('',#1045,#856,#857);
#774=AXIS2_PLACEMENT_3D('',#1051,#861,#862);
#775=AXIS2_PLACEMENT_3D('',#1057,#866,#867);
#776=AXIS2_PLACEMENT_3D('',#1060,#870,#871);
#777=AXIS2_PLACEMENT_3D('',#1062,#872,#873);
#778=AXIS2_PLACEMENT_3D('',#1065,#875,#876);
#779=AXIS2_PLACEMENT_3D('',#1066,#877,#878);
#780=AXIS2_PLACEMENT_3D('',#1068,#879,#880);
#781=AXIS2_PLACEMENT_3D('',#1071,#882,#883);
#782=AXIS2_PLACEMENT_3D('',#1072,#884,#885);
#783=AXIS2_PLACEMENT_3D('',#1074,#886,#887);
#784=AXIS2_PLACEMENT_3D('',#1077,#889,#890);
#785=AXIS2_PLACEMENT_3D('',#1078,#891,#892);
#786=AXIS2_PLACEMENT_3D('',#1080,#893,#894);
#787=AXIS2_PLACEMENT_3D('',#1083,#896,#897);
#788=AXIS2_PLACEMENT_3D('',#1084,#898,#899);
#789=AXIS2_PLACEMENT_3D('',#1086,#900,#901);
#790=AXIS2_PLACEMENT_3D('',#1089,#903,#904);
#791=AXIS2_PLACEMENT_3D('',#1090,#905,#906);
#792=AXIS2_PLACEMENT_3D('',#1092,#907,#908);
#793=AXIS2_PLACEMENT_3D('',#1095,#910,#911);
#794=AXIS2_PLACEMENT_3D('',#1096,#912,#913);
#795=AXIS2_PLACEMENT_3D('',#1105,#918,#919);
#796=AXIS2_PLACEMENT_3D('',#1111,#923,#924);
#797=AXIS2_PLACEMENT_3D('',#1117,#928,#929);
#798=AXIS2_PLACEMENT_3D('',#1120,#932,#933);
#799=AXIS2_PLACEMENT_3D('',#1129,#938,#939);
#800=AXIS2_PLACEMENT_3D('',#1135,#943,#944);
#801=AXIS2_PLACEMENT_3D('',#1141,#948,#949);
#802=AXIS2_PLACEMENT_3D('',#1144,#952,#953);
#803=AXIS2_PLACEMENT_3D('',#1146,#954,#955);
#804=AXIS2_PLACEMENT_3D('',#1149,#957,#958);
#805=AXIS2_PLACEMENT_3D('',#1150,#959,#960);
#806=AXIS2_PLACEMENT_3D('',#1159,#965,#966);
#807=AXIS2_PLACEMENT_3D('',#1165,#970,#971);
#808=AXIS2_PLACEMENT_3D('',#1171,#975,#976);
#809=AXIS2_PLACEMENT_3D('',#1177,#980,#981);
#810=AXIS2_PLACEMENT_3D('',#1183,#985,#986);
#811=AXIS2_PLACEMENT_3D('',#1368,#991,#992);
#812=AXIS2_PLACEMENT_3D('',#1371,#995,#996);
#813=AXIS2_PLACEMENT_3D('',#1372,#997,#998);
#814=DIRECTION('axis',(0.,0.,1.));
#815=DIRECTION('refdir',(1.,0.,0.));
#816=DIRECTION('center_axis',(0.,0.,1.));
#817=DIRECTION('ref_axis',(1.,0.,0.));
#818=DIRECTION('center_axis',(0.,0.,-1.));
#819=DIRECTION('ref_axis',(1.,0.,0.));
#820=DIRECTION('',(0.,0.,-1.));
#821=DIRECTION('center_axis',(0.,0.,-1.));
#822=DIRECTION('ref_axis',(1.,0.,0.));
#823=DIRECTION('center_axis',(-1.,0.,0.));
#824=DIRECTION('ref_axis',(0.,-1.,0.));
#825=DIRECTION('',(0.,-1.,0.));
#826=DIRECTION('',(0.,0.,1.));
#827=DIRECTION('',(0.,-1.,0.));
#828=DIRECTION('',(0.,0.,1.));
#829=DIRECTION('center_axis',(0.,-1.,0.));
#830=DIRECTION('ref_axis',(1.,0.,0.));
#831=DIRECTION('',(1.,0.,0.));
#832=DIRECTION('',(1.,0.,0.));
#833=DIRECTION('',(0.,0.,1.));
#834=DIRECTION('center_axis',(1.,0.,0.));
#835=DIRECTION('ref_axis',(0.,1.,0.));
#836=DIRECTION('',(0.,1.,0.));
#837=DIRECTION('',(0.,1.,0.));
#838=DIRECTION('',(0.,0.,1.));
#839=DIRECTION('center_axis',(0.,1.,0.));
#840=DIRECTION('ref_axis',(-1.,0.,0.));
#841=DIRECTION('',(-1.,0.,0.));
#842=DIRECTION('',(-1.,0.,0.));
#843=DIRECTION('center_axis',(0.,0.,1.));
#844=DIRECTION('ref_axis',(1.,0.,0.));
#845=DIRECTION('center_axis',(0.,0.,-1.));
#846=DIRECTION('ref_axis',(1.,0.,0.));
#847=DIRECTION('',(0.,0.,-1.));
#848=DIRECTION('center_axis',(0.,0.,-1.));
#849=DIRECTION('ref_axis',(1.,0.,0.));
#850=DIRECTION('center_axis',(-1.,0.,0.));
#851=DIRECTION('ref_axis',(0.,-1.,0.));
#852=DIRECTION('',(0.,-1.,0.));
#853=DIRECTION('',(0.,0.,1.));
#854=DIRECTION('',(0.,-1.,0.));
#855=DIRECTION('',(0.,0.,1.));
#856=DIRECTION('center_axis',(0.,-1.,0.));
#857=DIRECTION('ref_axis',(1.,0.,0.));
#858=DIRECTION('',(1.,0.,0.));
#859=DIRECTION('',(1.,0.,0.));
#860=DIRECTION('',(0.,0.,1.));
#861=DIRECTION('center_axis',(1.,0.,0.));
#862=DIRECTION('ref_axis',(0.,1.,0.));
#863=DIRECTION('',(0.,1.,0.));
#864=DIRECTION('',(0.,1.,0.));
#865=DIRECTION('',(0.,0.,1.));
#866=DIRECTION('center_axis',(0.,1.,0.));
#867=DIRECTION('ref_axis',(-1.,0.,0.));
#868=DIRECTION('',(-1.,0.,0.));
#869=DIRECTION('',(-1.,0.,0.));
#870=DIRECTION('center_axis',(0.,0.,1.));
#871=DIRECTION('ref_axis',(1.,0.,0.));
#872=DIRECTION('center_axis',(0.,0.,-1.));
#873=DIRECTION('ref_axis',(1.,0.,0.));
#874=DIRECTION('',(0.,0.,-1.));
#875=DIRECTION('center_axis',(0.,0.,-1.));
#876=DIRECTION('ref_axis',(1.,0.,0.));
#877=DIRECTION('center_axis',(0.,0.,1.));
#878=DIRECTION('ref_axis',(1.,0.,0.));
#879=DIRECTION('center_axis',(0.,0.,-1.));
#880=DIRECTION('ref_axis',(1.,0.,0.));
#881=DIRECTION('',(0.,0.,-1.));
#882=DIRECTION('center_axis',(0.,0.,-1.));
#883=DIRECTION('ref_axis',(1.,0.,0.));
#884=DIRECTION('center_axis',(0.,0.,1.));
#885=DIRECTION('ref_axis',(1.,0.,0.));
#886=DIRECTION('center_axis',(0.,0.,-1.));
#887=DIRECTION('ref_axis',(1.,0.,0.));
#888=DIRECTION('',(0.,0.,-1.));
#889=DIRECTION('center_axis',(0.,0.,-1.));
#890=DIRECTION('ref_axis',(1.,0.,0.));
#891=DIRECTION('center_axis',(0.,0.,1.));
#892=DIRECTION('ref_axis',(1.,0.,0.));
#893=DIRECTION('center_axis',(0.,0.,-1.));
#894=DIRECTION('ref_axis',(1.,0.,0.));
#895=DIRECTION('',(0.,0.,-1.));
#896=DIRECTION('center_axis',(0.,0.,-1.));
#897=DIRECTION('ref_axis',(1.,0.,0.));
#898=DIRECTION('center_axis',(0.,0.,1.));
#899=DIRECTION('ref_axis',(1.,0.,0.));
#900=DIRECTION('center_axis',(0.,0.,-1.));
#901=DIRECTION('ref_axis',(1.,0.,0.));
#902=DIRECTION('',(0.,0.,-1.));
#903=DIRECTION('center_axis',(0.,0.,-1.));
#904=DIRECTION('ref_axis',(1.,0.,0.));
#905=DIRECTION('center_axis',(0.,0.,1.));
#906=DIRECTION('ref_axis',(1.,0.,0.));
#907=DIRECTION('center_axis',(0.,0.,-1.));
#908=DIRECTION('ref_axis',(1.,0.,0.));
#909=DIRECTION('',(0.,0.,-1.));
#910=DIRECTION('center_axis',(0.,0.,-1.));
#911=DIRECTION('ref_axis',(1.,0.,0.));
#912=DIRECTION('center_axis',(-1.,0.,0.));
#913=DIRECTION('ref_axis',(0.,-1.,0.));
#914=DIRECTION('',(0.,-1.,0.));
#915=DIRECTION('',(0.,0.,1.));
#916=DIRECTION('',(0.,-1.,0.));
#917=DIRECTION('',(0.,0.,1.));
#918=DIRECTION('center_axis',(0.,-1.,0.));
#919=DIRECTION('ref_axis',(1.,0.,0.));
#920=DIRECTION('',(1.,0.,0.));
#921=DIRECTION('',(1.,0.,0.));
#922=DIRECTION('',(0.,0.,1.));
#923=DIRECTION('center_axis',(1.,0.,0.));
#924=DIRECTION('ref_axis',(0.,1.,0.));
#925=DIRECTION('',(0.,1.,0.));
#926=DIRECTION('',(0.,1.,0.));
#927=DIRECTION('',(0.,0.,1.));
#928=DIRECTION('center_axis',(0.,1.,0.));
#929=DIRECTION('ref_axis',(-1.,0.,0.));
#930=DIRECTION('',(-1.,0.,0.));
#931=DIRECTION('',(-1.,0.,0.));
#932=DIRECTION('center_axis',(-1.,0.,0.));
#933=DIRECTION('ref_axis',(0.,-1.,0.));
#934=DIRECTION('',(0.,-1.,0.));
#935=DIRECTION('',(0.,0.,1.));
#936=DIRECTION('',(0.,-1.,0.));
#937=DIRECTION('',(0.,0.,1.));
#938=DIRECTION('center_axis',(0.,-1.,0.));
#939=DIRECTION('ref_axis',(1.,0.,0.));
#940=DIRECTION('',(1.,0.,0.));
#941=DIRECTION('',(1.,0.,0.));
#942=DIRECTION('',(0.,0.,1.));
#943=DIRECTION('center_axis',(1.,0.,0.));
#944=DIRECTION('ref_axis',(0.,1.,0.));
#945=DIRECTION('',(0.,1.,0.));
#946=DIRECTION('',(0.,1.,0.));
#947=DIRECTION('',(0.,0.,1.));
#948=DIRECTION('center_axis',(0.,1.,0.));
#949=DIRECTION('ref_axis',(-1.,0.,0.));
#950=DIRECTION('',(-1.,0.,0.));
#951=DIRECTION('',(-1.,0.,0.));
#952=DIRECTION('center_axis',(0.,0.,1.));
#953=DIRECTION('ref_axis',(1.,0.,0.));
#954=DIRECTION('center_axis',(0.,0.,-1.));
#955=DIRECTION('ref_axis',(1.,0.,0.));
#956=DIRECTION('',(0.,0.,-1.));
#957=DIRECTION('center_axis',(0.,0.,-1.));
#958=DIRECTION('ref_axis',(1.,0.,0.));
#959=DIRECTION('center_axis',(0.,-1.,0.));
#960=DIRECTION('ref_axis',(1.,0.,0.));
#961=DIRECTION('',(1.,0.,0.));
#962=DIRECTION('',(0.,0.,1.));
#963=DIRECTION('',(1.,0.,0.));
#964=DIRECTION('',(0.,0.,1.));
#965=DIRECTION('center_axis',(-1.,0.,0.));
#966=DIRECTION('ref_axis',(0.,-1.,0.));
#967=DIRECTION('',(0.,1.,0.));
#968=DIRECTION('',(0.,-1.,0.));
#969=DIRECTION('',(0.,0.,1.));
#970=DIRECTION('center_axis',(0.,-1.,0.));
#971=DIRECTION('ref_axis',(1.,0.,0.));
#972=DIRECTION('',(-1.,0.,0.));
#973=DIRECTION('',(1.,0.,0.));
#974=DIRECTION('',(0.,0.,1.));
#975=DIRECTION('center_axis',(1.,0.,0.));
#976=DIRECTION('ref_axis',(0.,1.,0.));
#977=DIRECTION('',(0.,-1.,0.));
#978=DIRECTION('',(0.,1.,0.));
#979=DIRECTION('',(0.,0.,1.));
#980=DIRECTION('center_axis',(0.,-1.,0.));
#981=DIRECTION('ref_axis',(1.,0.,0.));
#982=DIRECTION('',(-1.,0.,0.));
#983=DIRECTION('',(1.,0.,0.));
#984=DIRECTION('',(0.,0.,1.));
#985=DIRECTION('center_axis',(1.,0.,0.));
#986=DIRECTION('ref_axis',(0.,1.,0.));
#987=DIRECTION('',(0.,-1.,0.));
#988=DIRECTION('',(0.,1.,0.));
#989=DIRECTION('',(0.,0.,1.));
#990=DIRECTION('',(0.,0.,1.));
#991=DIRECTION('center_axis',(-1.,0.,0.));
#992=DIRECTION('ref_axis',(0.,-1.,0.));
#993=DIRECTION('',(0.,-1.,0.));
#994=DIRECTION('',(0.,-1.,0.));
#995=DIRECTION('center_axis',(0.,0.,1.));
#996=DIRECTION('ref_axis',(1.,0.,0.));
#997=DIRECTION('center_axis',(0.,0.,1.));
#998=DIRECTION('ref_axis',(1.,0.,0.));
#999=CARTESIAN_POINT('',(0.,0.,0.));
#1000=CARTESIAN_POINT('Origin',(248.000003695488,-102.000001519918,10.));
#1001=CARTESIAN_POINT('',(233.000003695488,-102.000001519918,15.));
#1002=CARTESIAN_POINT('Origin',(248.000003695488,-102.000001519918,15.));
#1003=CARTESIAN_POINT('',(233.000003695488,-102.000001519918,10.));
#1004=CARTESIAN_POINT('',(233.000003695488,-102.000001519918,10.));
#1005=CARTESIAN_POINT('Origin',(248.000003695488,-102.000001519918,10.));
#1006=CARTESIAN_POINT('Origin',(162.000002413988,-73.0073873482292,10.));
#1007=CARTESIAN_POINT('',(162.000002413988,-73.0073873482292,10.));
#1008=CARTESIAN_POINT('',(162.000002413988,-79.0000011771917,10.));
#1009=CARTESIAN_POINT('',(162.000002413988,-73.0073873482292,10.));
#1010=CARTESIAN_POINT('',(162.000002413988,-79.0000011771917,15.));
#1011=CARTESIAN_POINT('',(162.000002413988,-79.0000011771917,10.));
#1012=CARTESIAN_POINT('',(162.000002413988,-73.0073873482292,15.));
#1013=CARTESIAN_POINT('',(162.000002413988,-73.0073873482292,15.));
#1014=CARTESIAN_POINT('',(162.000002413988,-73.0073873482292,10.));
#1015=CARTESIAN_POINT('Origin',(146.483086408321,-73.0073873482292,10.));
#1016=CARTESIAN_POINT('',(146.483086408321,-73.0073873482292,10.));
#1017=CARTESIAN_POINT('',(146.483086408321,-73.0073873482292,10.));
#1018=CARTESIAN_POINT('',(146.483086408321,-73.0073873482292,15.));
#1019=CARTESIAN_POINT('',(146.483086408321,-73.0073873482292,15.));
#1020=CARTESIAN_POINT('',(146.483086408321,-73.0073873482292,10.));
#1021=CARTESIAN_POINT('Origin',(146.483086408321,-79.0000011771917,10.));
#1022=CARTESIAN_POINT('',(146.483086408321,-79.0000011771917,10.));
#1023=CARTESIAN_POINT('',(146.483086408321,-79.0000011771917,10.));
#1024=CARTESIAN_POINT('',(146.483086408321,-79.0000011771917,15.));
#1025=CARTESIAN_POINT('',(146.483086408321,-79.0000011771917,15.));
#1026=CARTESIAN_POINT('',(146.483086408321,-79.0000011771917,10.));
#1027=CARTESIAN_POINT('Origin',(162.000002413988,-79.0000011771917,10.));
#1028=CARTESIAN_POINT('',(162.000002413988,-79.0000011771917,10.));
#1029=CARTESIAN_POINT('',(162.000002413988,-79.0000011771917,15.));
#1030=CARTESIAN_POINT('Origin',(151.000002250075,-102.000001519918,10.));
#1031=CARTESIAN_POINT('',(136.000002250075,-102.000001519918,15.));
#1032=CARTESIAN_POINT('Origin',(151.000002250075,-102.000001519918,15.));
#1033=CARTESIAN_POINT('',(136.000002250075,-102.000001519918,10.));
#1034=CARTESIAN_POINT('',(136.000002250075,-102.000001519918,10.));
#1035=CARTESIAN_POINT('Origin',(151.000002250075,-102.000001519918,10.));
#1036=CARTESIAN_POINT('Origin',(215.00000320375,-59.7300028370228,10.));
#1037=CARTESIAN_POINT('',(215.00000320375,-59.7300028370228,10.));
#1038=CARTESIAN_POINT('',(215.00000320375,-80.0000011920929,10.));
#1039=CARTESIAN_POINT('',(215.00000320375,-59.7300028370228,10.));
#1040=CARTESIAN_POINT('',(215.00000320375,-80.0000011920929,15.));
#1041=CARTESIAN_POINT('',(215.00000320375,-80.0000011920929,10.));
#1042=CARTESIAN_POINT('',(215.00000320375,-59.7300028370228,15.));
#1043=CARTESIAN_POINT('',(215.00000320375,-59.7300028370228,15.));
#1044=CARTESIAN_POINT('',(215.00000320375,-59.7300028370228,10.));
#1045=CARTESIAN_POINT('Origin',(183.140008698683,-59.7300028370228,10.));
#1046=CARTESIAN_POINT('',(183.140008698683,-59.7300028370228,10.));
#1047=CARTESIAN_POINT('',(183.140008698683,-59.7300028370228,10.));
#1048=CARTESIAN_POINT('',(183.140008698683,-59.7300028370228,15.));
#1049=CARTESIAN_POINT('',(183.140008698683,-59.7300028370228,15.));
#1050=CARTESIAN_POINT('',(183.140008698683,-59.7300028370228,10.));
#1051=CARTESIAN_POINT('Origin',(183.140008698683,-80.0000011920929,10.));
#1052=CARTESIAN_POINT('',(183.140008698683,-80.0000011920929,10.));
#1053=CARTESIAN_POINT('',(183.140008698683,-80.0000011920929,10.));
#1054=CARTESIAN_POINT('',(183.140008698683,-80.0000011920929,15.));
#1055=CARTESIAN_POINT('',(183.140008698683,-80.0000011920929,15.));
#1056=CARTESIAN_POINT('',(183.140008698683,-80.0000011920929,10.));
#1057=CARTESIAN_POINT('Origin',(215.00000320375,-80.0000011920929,10.));
#1058=CARTESIAN_POINT('',(215.00000320375,-80.0000011920929,10.));
#1059=CARTESIAN_POINT('',(215.00000320375,-80.0000011920929,15.));
#1060=CARTESIAN_POINT('Origin',(261.999994143844,-115.999997407198,10.));
#1061=CARTESIAN_POINT('',(260.399994143844,-115.999997407198,15.));
#1062=CARTESIAN_POINT('Origin',(261.999994143844,-115.999997407198,15.));
#1063=CARTESIAN_POINT('',(260.399994143844,-115.999997407198,10.));
#1064=CARTESIAN_POINT('',(260.399994143844,-115.999997407198,10.));
#1065=CARTESIAN_POINT('Origin',(261.999994143844,-115.999997407198,10.));
#1066=CARTESIAN_POINT('Origin',(132.000001966953,-77.0000011473894,10.));
#1067=CARTESIAN_POINT('',(130.400001966953,-77.0000011473894,15.));
#1068=CARTESIAN_POINT('Origin',(132.000001966953,-77.0000011473894,15.));
#1069=CARTESIAN_POINT('',(130.400001966953,-77.0000011473894,10.));
#1070=CARTESIAN_POINT('',(130.400001966953,-77.0000011473894,10.));
#1071=CARTESIAN_POINT('Origin',(132.000001966953,-77.0000011473894,10.));
#1072=CARTESIAN_POINT('Origin',(140.262657736526,-77.1291342475875,10.));
#1073=CARTESIAN_POINT('',(136.810142164343,-77.1291342475875,15.));
#1074=CARTESIAN_POINT('Origin',(140.262657736526,-77.1291342475875,15.));
#1075=CARTESIAN_POINT('',(136.810142164343,-77.1291342475875,10.));
#1076=CARTESIAN_POINT('',(136.810142164343,-77.1291342475875,10.));
#1077=CARTESIAN_POINT('Origin',(140.262657736526,-77.1291342475875,10.));
#1078=CARTESIAN_POINT('Origin',(254.410220245619,-77.7960346733354,10.));
#1079=CARTESIAN_POINT('',(251.014594999816,-77.7960346733354,15.));
#1080=CARTESIAN_POINT('Origin',(254.410220245619,-77.7960346733354,15.));
#1081=CARTESIAN_POINT('',(251.014594999816,-77.7960346733354,10.));
#1082=CARTESIAN_POINT('',(251.014594999816,-77.7960346733354,10.));
#1083=CARTESIAN_POINT('Origin',(254.410220245619,-77.7960346733354,10.));
#1084=CARTESIAN_POINT('Origin',(131.99999704957,-115.999997407198,10.));
#1085=CARTESIAN_POINT('',(130.39999704957,-115.999997407198,15.));
#1086=CARTESIAN_POINT('Origin',(131.99999704957,-115.999997407198,15.));
#1087=CARTESIAN_POINT('',(130.39999704957,-115.999997407198,10.));
#1088=CARTESIAN_POINT('',(130.39999704957,-115.999997407198,10.));
#1089=CARTESIAN_POINT('Origin',(131.99999704957,-115.999997407198,10.));
#1090=CARTESIAN_POINT('Origin',(219.799995087087,-92.5999979302287,10.));
#1091=CARTESIAN_POINT('',(208.272881968789,-92.5999979302287,15.));
#1092=CARTESIAN_POINT('Origin',(219.799995087087,-92.5999979302287,15.));
#1093=CARTESIAN_POINT('',(208.272881968789,-92.5999979302287,10.));
#1094=CARTESIAN_POINT('',(208.272881968789,-92.5999979302287,10.));
#1095=CARTESIAN_POINT('Origin',(219.799995087087,-92.5999979302287,10.));
#1096=CARTESIAN_POINT('Origin',(182.000002712011,-71.9695404796825,10.));
#1097=CARTESIAN_POINT('',(182.000002712011,-71.9695404796825,10.));
#1098=CARTESIAN_POINT('',(182.000002712011,-78.0000011622906,10.));
#1099=CARTESIAN_POINT('',(182.000002712011,-71.9695404796825,10.));
#1100=CARTESIAN_POINT('',(182.000002712011,-78.0000011622906,15.));
#1101=CARTESIAN_POINT('',(182.000002712011,-78.0000011622906,10.));
#1102=CARTESIAN_POINT('',(182.000002712011,-71.9695404796825,15.));
#1103=CARTESIAN_POINT('',(182.000002712011,-71.9695404796825,15.));
#1104=CARTESIAN_POINT('',(182.000002712011,-71.9695404796825,10.));
#1105=CARTESIAN_POINT('Origin',(172.875781052652,-71.9695404796825,10.));
#1106=CARTESIAN_POINT('',(172.875781052652,-71.9695404796825,10.));
#1107=CARTESIAN_POINT('',(172.875781052652,-71.9695404796825,10.));
#1108=CARTESIAN_POINT('',(172.875781052652,-71.9695404796825,15.));
#1109=CARTESIAN_POINT('',(172.875781052652,-71.9695404796825,15.));
#1110=CARTESIAN_POINT('',(172.875781052652,-71.9695404796825,10.));
#1111=CARTESIAN_POINT('Origin',(172.875781052652,-78.0000011622906,10.));
#1112=CARTESIAN_POINT('',(172.875781052652,-78.0000011622906,10.));
#1113=CARTESIAN_POINT('',(172.875781052652,-78.0000011622906,10.));
#1114=CARTESIAN_POINT('',(172.875781052652,-78.0000011622906,15.));
#1115=CARTESIAN_POINT('',(172.875781052652,-78.0000011622906,15.));
#1116=CARTESIAN_POINT('',(172.875781052652,-78.0000011622906,10.));
#1117=CARTESIAN_POINT('Origin',(182.000002712011,-78.0000011622906,10.));
#1118=CARTESIAN_POINT('',(182.000002712011,-78.0000011622906,10.));
#1119=CARTESIAN_POINT('',(182.000002712011,-78.0000011622906,15.));
#1120=CARTESIAN_POINT('Origin',(225.000003352761,-71.9695404796825,10.));
#1121=CARTESIAN_POINT('',(225.000003352761,-71.9695404796825,10.));
#1122=CARTESIAN_POINT('',(225.000003352761,-78.0000011622906,10.));
#1123=CARTESIAN_POINT('',(225.000003352761,-71.9695404796825,10.));
#1124=CARTESIAN_POINT('',(225.000003352761,-78.0000011622906,15.));
#1125=CARTESIAN_POINT('',(225.000003352761,-78.0000011622906,10.));
#1126=CARTESIAN_POINT('',(225.000003352761,-71.9695404796825,15.));
#1127=CARTESIAN_POINT('',(225.000003352761,-71.9695404796825,15.));
#1128=CARTESIAN_POINT('',(225.000003352761,-71.9695404796825,10.));
#1129=CARTESIAN_POINT('Origin',(215.455184595906,-71.9695404796825,10.));
#1130=CARTESIAN_POINT('',(215.455184595906,-71.9695404796825,10.));
#1131=CARTESIAN_POINT('',(215.455184595906,-71.9695404796825,10.));
#1132=CARTESIAN_POINT('',(215.455184595906,-71.9695404796825,15.));
#1133=CARTESIAN_POINT('',(215.455184595906,-71.9695404796825,15.));
#1134=CARTESIAN_POINT('',(215.455184595906,-71.9695404796825,10.));
#1135=CARTESIAN_POINT('Origin',(215.455184595906,-78.0000011622906,10.));
#1136=CARTESIAN_POINT('',(215.455184595906,-78.0000011622906,10.));
#1137=CARTESIAN_POINT('',(215.455184595906,-78.0000011622906,10.));
#1138=CARTESIAN_POINT('',(215.455184595906,-78.0000011622906,15.));
#1139=CARTESIAN_POINT('',(215.455184595906,-78.0000011622906,15.));
#1140=CARTESIAN_POINT('',(215.455184595906,-78.0000011622906,10.));
#1141=CARTESIAN_POINT('Origin',(225.000003352761,-78.0000011622906,10.));
#1142=CARTESIAN_POINT('',(225.000003352761,-78.0000011622906,10.));
#1143=CARTESIAN_POINT('',(225.000003352761,-78.0000011622906,15.));
#1144=CARTESIAN_POINT('Origin',(261.999994143844,-76.9999982789159,10.));
#1145=CARTESIAN_POINT('',(260.399994143844,-76.9999982789159,15.));
#1146=CARTESIAN_POINT('Origin',(261.999994143844,-76.9999982789159,15.));
#1147=CARTESIAN_POINT('',(260.399994143844,-76.9999982789159,10.));
#1148=CARTESIAN_POINT('',(260.399994143844,-76.9999982789159,10.));
#1149=CARTESIAN_POINT('Origin',(261.999994143844,-76.9999982789159,10.));
#1150=CARTESIAN_POINT('Origin',(205.599995404482,-120.59999730438,10.));
#1151=CARTESIAN_POINT('',(205.599995404482,-120.59999730438,10.));
#1152=CARTESIAN_POINT('',(210.000003129244,-120.59999730438,10.));
#1153=CARTESIAN_POINT('',(205.599995404482,-120.59999730438,10.));
#1154=CARTESIAN_POINT('',(210.000003129244,-120.59999730438,15.));
#1155=CARTESIAN_POINT('',(210.000003129244,-120.59999730438,10.));
#1156=CARTESIAN_POINT('',(205.599995404482,-120.59999730438,15.));
#1157=CARTESIAN_POINT('',(205.599995404482,-120.59999730438,15.));
#1158=CARTESIAN_POINT('',(205.599995404482,-120.59999730438,10.));
#1159=CARTESIAN_POINT('Origin',(205.599995404482,-119.170005660271,10.));
#1160=CARTESIAN_POINT('',(205.599995404482,-119.170005660271,10.));
#1161=CARTESIAN_POINT('',(205.599995404482,-120.59999730438,10.));
#1162=CARTESIAN_POINT('',(205.599995404482,-119.170005660271,15.));
#1163=CARTESIAN_POINT('',(205.599995404482,-120.59999730438,15.));
#1164=CARTESIAN_POINT('',(205.599995404482,-119.170005660271,10.));
#1165=CARTESIAN_POINT('Origin',(196.499995607883,-119.170005660271,10.));
#1166=CARTESIAN_POINT('',(196.499995607883,-119.170005660271,10.));
#1167=CARTESIAN_POINT('',(265.740012621973,-119.170005660271,10.));
#1168=CARTESIAN_POINT('',(196.499995607883,-119.170005660271,15.));
#1169=CARTESIAN_POINT('',(265.740012621973,-119.170005660271,15.));
#1170=CARTESIAN_POINT('',(196.499995607883,-119.170005660271,10.));
#1171=CARTESIAN_POINT('Origin',(196.499995607883,-120.59999730438,10.));
#1172=CARTESIAN_POINT('',(196.499995607883,-120.59999730438,10.));
#1173=CARTESIAN_POINT('',(196.499995607883,-119.199997335672,10.));
#1174=CARTESIAN_POINT('',(196.499995607883,-120.59999730438,15.));
#1175=CARTESIAN_POINT('',(196.499995607883,-119.199997335672,15.));
#1176=CARTESIAN_POINT('',(196.499995607883,-120.59999730438,10.));
#1177=CARTESIAN_POINT('Origin',(192.000002861023,-120.59999730438,10.));
#1178=CARTESIAN_POINT('',(192.000002861023,-120.59999730438,10.));
#1179=CARTESIAN_POINT('',(196.499995607883,-120.59999730438,10.));
#1180=CARTESIAN_POINT('',(192.000002861023,-120.59999730438,15.));
#1181=CARTESIAN_POINT('',(196.499995607883,-120.59999730438,15.));
#1182=CARTESIAN_POINT('',(192.000002861023,-120.59999730438,10.));
#1183=CARTESIAN_POINT('Origin',(192.000002861023,-123.637283052322,10.));
#1184=CARTESIAN_POINT('',(192.000002861023,-123.637283052322,10.));
#1185=CARTESIAN_POINT('',(192.000002861023,-123.398868850584,10.));
#1186=CARTESIAN_POINT('',(192.000002861023,-123.637283052322,15.));
#1187=CARTESIAN_POINT('',(192.000002861023,-123.398868850584,15.));
#1188=CARTESIAN_POINT('',(192.000002861023,-123.637283052322,10.));
#1189=CARTESIAN_POINT('Ctrl Pts',(210.000003129244,-123.758349334059,10.));
#1190=CARTESIAN_POINT('Ctrl Pts',(210.000003129244,-123.758349334059,15.));
#1191=CARTESIAN_POINT('Ctrl Pts',(212.089795509172,-123.912230865611,10.));
#1192=CARTESIAN_POINT('Ctrl Pts',(212.089795509172,-123.912230865611,15.));
#1193=CARTESIAN_POINT('Ctrl Pts',(217.115937968088,-124.375638220868,10.));
#1194=CARTESIAN_POINT('Ctrl Pts',(217.115937968088,-124.375638220868,15.));
#1195=CARTESIAN_POINT('Ctrl Pts',(224.943483581871,-125.424504552267,10.));
#1196=CARTESIAN_POINT('Ctrl Pts',(224.943483581871,-125.424504552267,15.));
#1197=CARTESIAN_POINT('Ctrl Pts',(235.227416276321,-127.263350476599,10.));
#1198=CARTESIAN_POINT('Ctrl Pts',(235.227416276321,-127.263350476599,15.));
#1199=CARTESIAN_POINT('Ctrl Pts',(247.223867432508,-129.16335743285,10.));
#1200=CARTESIAN_POINT('Ctrl Pts',(247.223867432508,-129.16335743285,15.));
#1201=CARTESIAN_POINT('Ctrl Pts',(258.382473292194,-129.080067681964,10.));
#1202=CARTESIAN_POINT('Ctrl Pts',(258.382473292194,-129.080067681964,15.));
#1203=CARTESIAN_POINT('Ctrl Pts',(267.566659169467,-125.589429302187,10.));
#1204=CARTESIAN_POINT('Ctrl Pts',(267.566659169467,-125.589429302187,15.));
#1205=CARTESIAN_POINT('Ctrl Pts',(274.372407288956,-118.07409168093,10.));
#1206=CARTESIAN_POINT('Ctrl Pts',(274.372407288956,-118.07409168093,15.));
#1207=CARTESIAN_POINT('Ctrl Pts',(278.340720758008,-107.126920852689,10.));
#1208=CARTESIAN_POINT('Ctrl Pts',(278.340720758008,-107.126920852689,15.));
#1209=CARTESIAN_POINT('Ctrl Pts',(279.053819279865,-94.2364902660317,10.));
#1210=CARTESIAN_POINT('Ctrl Pts',(279.053819279865,-94.2364902660317,15.));
#1211=CARTESIAN_POINT('Ctrl Pts',(276.260003490035,-81.2816339294798,10.));
#1212=CARTESIAN_POINT('Ctrl Pts',(276.260003490035,-81.2816339294798,15.));
#1213=CARTESIAN_POINT('Ctrl Pts',(269.994057301888,-70.0865746981214,10.));
#1214=CARTESIAN_POINT('Ctrl Pts',(269.994057301888,-70.0865746981214,15.));
#1215=CARTESIAN_POINT('Ctrl Pts',(260.691706524372,-61.9681319891763,10.));
#1216=CARTESIAN_POINT('Ctrl Pts',(260.691706524372,-61.9681319891763,15.));
#1217=CARTESIAN_POINT('Ctrl Pts',(249.334859560337,-57.238655451831,10.));
#1218=CARTESIAN_POINT('Ctrl Pts',(249.334859560337,-57.238655451831,15.));
#1219=CARTESIAN_POINT('Ctrl Pts',(237.182545912897,-55.4448669140062,10.));
#1220=CARTESIAN_POINT('Ctrl Pts',(237.182545912897,-55.4448669140062,15.));
#1221=CARTESIAN_POINT('Ctrl Pts',(225.467951465034,-55.6721190423754,10.));
#1222=CARTESIAN_POINT('Ctrl Pts',(225.467951465034,-55.6721190423754,15.));
#1223=CARTESIAN_POINT('Ctrl Pts',(215.102609644702,-56.8233386650596,10.));
#1224=CARTESIAN_POINT('Ctrl Pts',(215.102609644702,-56.8233386650596,15.));
#1225=CARTESIAN_POINT('Ctrl Pts',(206.388727922496,-57.90318512226,10.));
#1226=CARTESIAN_POINT('Ctrl Pts',(206.388727922496,-57.90318512226,15.));
#1227=CARTESIAN_POINT('Ctrl Pts',(198.691561808035,-58.3101250712473,10.));
#1228=CARTESIAN_POINT('Ctrl Pts',(198.691561808035,-58.3101250712473,15.));
#1229=CARTESIAN_POINT('Ctrl Pts',(190.901576705844,-57.846788884124,10.));
#1230=CARTESIAN_POINT('Ctrl Pts',(190.901576705844,-57.846788884124,15.));
#1231=CARTESIAN_POINT('Ctrl Pts',(181.918125359512,-56.7094565560834,10.));
#1232=CARTESIAN_POINT('Ctrl Pts',(181.918125359512,-56.7094565560834,15.));
#1233=CARTESIAN_POINT('Ctrl Pts',(171.161987193509,-55.5004355299172,10.));
#1234=CARTESIAN_POINT('Ctrl Pts',(171.161987193509,-55.5004355299172,15.));
#1235=CARTESIAN_POINT('Ctrl Pts',(158.970169355711,-55.1956787670938,10.));
#1236=CARTESIAN_POINT('Ctrl Pts',(158.970169355711,-55.1956787670938,15.));
#1237=CARTESIAN_POINT('Ctrl Pts',(146.25506465527,-56.8590722848865,10.));
#1238=CARTESIAN_POINT('Ctrl Pts',(146.25506465527,-56.8590722848865,15.));
#1239=CARTESIAN_POINT('Ctrl Pts',(136.65387828476,-60.4809781898709,10.));
#1240=CARTESIAN_POINT('Ctrl Pts',(136.65387828476,-60.4809781898709,15.));
#1241=CARTESIAN_POINT('Ctrl Pts',(130.349225794624,-64.6931075875441,10.));
#1242=CARTESIAN_POINT('Ctrl Pts',(130.349225794624,-64.6931075875441,15.));
#1243=CARTESIAN_POINT('Ctrl Pts',(126.684479823527,-68.1337013907929,10.));
#1244=CARTESIAN_POINT('Ctrl Pts',(126.684479823527,-68.1337013907929,15.));
#1245=CARTESIAN_POINT('Ctrl Pts',(125.,-70.,10.));
#1246=CARTESIAN_POINT('Ctrl Pts',(125.,-70.,15.));
#1247=CARTESIAN_POINT('Ctrl Pts',(123.315520176474,-71.8662986092071,10.));
#1248=CARTESIAN_POINT('Ctrl Pts',(123.315520176474,-71.8662986092071,15.));
#1249=CARTESIAN_POINT('Ctrl Pts',(120.242346853464,-75.8908992427869,10.));
#1250=CARTESIAN_POINT('Ctrl Pts',(120.242346853464,-75.8908992427869,15.));
#1251=CARTESIAN_POINT('Ctrl Pts',(116.599771279708,-82.7310593769397,10.));
#1252=CARTESIAN_POINT('Ctrl Pts',(116.599771279708,-82.7310593769397,15.));
#1253=CARTESIAN_POINT('Ctrl Pts',(113.895892161962,-92.9725267738881,10.));
#1254=CARTESIAN_POINT('Ctrl Pts',(113.895892161962,-92.9725267738881,15.));
#1255=CARTESIAN_POINT('Ctrl Pts',(114.246049473122,-105.895859277326,10.));
#1256=CARTESIAN_POINT('Ctrl Pts',(114.246049473122,-105.895859277326,15.));
#1257=CARTESIAN_POINT('Ctrl Pts',(118.160607439652,-117.099966952951,10.));
#1258=CARTESIAN_POINT('Ctrl Pts',(118.160607439652,-117.099966952951,15.));
#1259=CARTESIAN_POINT('Ctrl Pts',(125.261089974031,-125.076822816447,10.));
#1260=CARTESIAN_POINT('Ctrl Pts',(125.261089974031,-125.076822816447,15.));
#1261=CARTESIAN_POINT('Ctrl Pts',(135.052590881314,-129.112506015502,10.));
#1262=CARTESIAN_POINT('Ctrl Pts',(135.052590881314,-129.112506015502,15.));
#1263=CARTESIAN_POINT('Ctrl Pts',(147.010580775258,-129.65666576382,10.));
#1264=CARTESIAN_POINT('Ctrl Pts',(147.010580775258,-129.65666576382,15.));
#1265=CARTESIAN_POINT('Ctrl Pts',(160.591422297932,-127.873898757678,10.));
#1266=CARTESIAN_POINT('Ctrl Pts',(160.591422297932,-127.873898757678,15.));
#1267=CARTESIAN_POINT('Ctrl Pts',(172.615071467829,-125.74444145129,10.));
#1268=CARTESIAN_POINT('Ctrl Pts',(172.615071467829,-125.74444145129,15.));
#1269=CARTESIAN_POINT('Ctrl Pts',(181.968493750173,-124.443230092392,10.));
#1270=CARTESIAN_POINT('Ctrl Pts',(181.968493750173,-124.443230092392,15.));
#1271=CARTESIAN_POINT('Ctrl Pts',(188.347681107188,-123.863843416849,10.));
#1272=CARTESIAN_POINT('Ctrl Pts',(188.347681107188,-123.863843416849,15.));
#1273=CARTESIAN_POINT('Ctrl Pts',(191.691945678131,-123.655642547118,10.));
#1274=CARTESIAN_POINT('Ctrl Pts',(191.691945678131,-123.655642547118,15.));
#1275=CARTESIAN_POINT('Ctrl Pts',(192.000002861023,-123.637283052322,10.));
#1276=CARTESIAN_POINT('Ctrl Pts',(192.000002861023,-123.637283052322,15.));
#1277=CARTESIAN_POINT('',(210.000003129244,-123.758349334059,10.));
#1278=CARTESIAN_POINT('Ctrl Pts',(210.000003129244,-123.758349334059,10.));
#1279=CARTESIAN_POINT('Ctrl Pts',(212.089795509172,-123.912230865611,10.));
#1280=CARTESIAN_POINT('Ctrl Pts',(217.115937968087,-124.375638220868,10.));
#1281=CARTESIAN_POINT('Ctrl Pts',(224.94348358187,-125.424504552267,10.));
#1282=CARTESIAN_POINT('Ctrl Pts',(235.227416276321,-127.263350476599,10.));
#1283=CARTESIAN_POINT('Ctrl Pts',(247.223867432508,-129.16335743285,10.));
#1284=CARTESIAN_POINT('Ctrl Pts',(258.382473292194,-129.080067681964,10.));
#1285=CARTESIAN_POINT('Ctrl Pts',(267.566659169467,-125.589429302187,10.));
#1286=CARTESIAN_POINT('Ctrl Pts',(274.372407288956,-118.07409168093,10.));
#1287=CARTESIAN_POINT('Ctrl Pts',(278.340720758008,-107.126920852689,10.));
#1288=CARTESIAN_POINT('Ctrl Pts',(279.053819279865,-94.2364902660317,10.));
#1289=CARTESIAN_POINT('Ctrl Pts',(276.260003490035,-81.2816339294798,10.));
#1290=CARTESIAN_POINT('Ctrl Pts',(269.994057301888,-70.0865746981214,10.));
#1291=CARTESIAN_POINT('Ctrl Pts',(260.691706524372,-61.9681319891763,10.));
#1292=CARTESIAN_POINT('Ctrl Pts',(249.334859560337,-57.238655451831,10.));
#1293=CARTESIAN_POINT('Ctrl Pts',(237.182545912897,-55.4448669140062,10.));
#1294=CARTESIAN_POINT('Ctrl Pts',(225.467951465034,-55.6721190423754,10.));
#1295=CARTESIAN_POINT('Ctrl Pts',(215.102609644702,-56.8233386650596,10.));
#1296=CARTESIAN_POINT('Ctrl Pts',(206.388727922496,-57.90318512226,10.));
#1297=CARTESIAN_POINT('Ctrl Pts',(198.691561808035,-58.3101250712473,10.));
#1298=CARTESIAN_POINT('Ctrl Pts',(190.901576705844,-57.846788884124,10.));
#1299=CARTESIAN_POINT('Ctrl Pts',(181.918125359512,-56.7094565560834,10.));
#1300=CARTESIAN_POINT('Ctrl Pts',(171.161987193509,-55.5004355299172,10.));
#1301=CARTESIAN_POINT('Ctrl Pts',(158.970169355711,-55.1956787670938,10.));
#1302=CARTESIAN_POINT('Ctrl Pts',(146.25506465527,-56.8590722848865,10.));
#1303=CARTESIAN_POINT('Ctrl Pts',(136.65387828476,-60.4809781898709,10.));
#1304=CARTESIAN_POINT('Ctrl Pts',(130.349225794624,-64.6931075875441,10.));
#1305=CARTESIAN_POINT('Ctrl Pts',(126.684479823527,-68.1337013907929,10.));
#1306=CARTESIAN_POINT('Ctrl Pts',(125.,-70.,10.));
#1307=CARTESIAN_POINT('Ctrl Pts',(123.315520176474,-71.8662986092071,10.));
#1308=CARTESIAN_POINT('Ctrl Pts',(120.242346853464,-75.8908992427869,10.));
#1309=CARTESIAN_POINT('Ctrl Pts',(116.599771279708,-82.7310593769397,10.));
#1310=CARTESIAN_POINT('Ctrl Pts',(113.895892161962,-92.9725267738881,10.));
#1311=CARTESIAN_POINT('Ctrl Pts',(114.246049473122,-105.895859277326,10.));
#1312=CARTESIAN_POINT('Ctrl Pts',(118.160607439652,-117.099966952951,10.));
#1313=CARTESIAN_POINT('Ctrl Pts',(125.261089974031,-125.076822816447,10.));
#1314=CARTESIAN_POINT('Ctrl Pts',(135.052590881314,-129.112506015502,10.));
#1315=CARTESIAN_POINT('Ctrl Pts',(147.010580775258,-129.65666576382,10.));
#1316=CARTESIAN_POINT('Ctrl Pts',(160.591422297932,-127.873898757678,10.));
#1317=CARTESIAN_POINT('Ctrl Pts',(172.615071467829,-125.74444145129,10.));
#1318=CARTESIAN_POINT('Ctrl Pts',(181.968493750173,-124.443230092392,10.));
#1319=CARTESIAN_POINT('Ctrl Pts',(188.347681107188,-123.863843416849,10.));
#1320=CARTESIAN_POINT('Ctrl Pts',(191.691945678131,-123.655642547118,10.));
#1321=CARTESIAN_POINT('Ctrl Pts',(192.000002861023,-123.637283052322,10.));
#1322=CARTESIAN_POINT('',(210.000003129244,-123.758349334059,15.));
#1323=CARTESIAN_POINT('Ctrl Pts',(210.000003129245,-123.758349334059,15.));
#1324=CARTESIAN_POINT('Ctrl Pts',(212.089795509172,-123.912230865611,15.));
#1325=CARTESIAN_POINT('Ctrl Pts',(217.115937968088,-124.375638220868,15.));
#1326=CARTESIAN_POINT('Ctrl Pts',(224.943483581871,-125.424504552267,15.));
#1327=CARTESIAN_POINT('Ctrl Pts',(235.227416276321,-127.263350476599,15.));
#1328=CARTESIAN_POINT('Ctrl Pts',(247.223867432508,-129.16335743285,15.));
#1329=CARTESIAN_POINT('Ctrl Pts',(258.382473292194,-129.080067681964,15.));
#1330=CARTESIAN_POINT('Ctrl Pts',(267.566659169467,-125.589429302187,15.));
#1331=CARTESIAN_POINT('Ctrl Pts',(274.372407288956,-118.07409168093,15.));
#1332=CARTESIAN_POINT('Ctrl Pts',(278.340720758008,-107.126920852689,15.));
#1333=CARTESIAN_POINT('Ctrl Pts',(279.053819279865,-94.2364902660317,15.));
#1334=CARTESIAN_POINT('Ctrl Pts',(276.260003490035,-81.2816339294798,15.));
#1335=CARTESIAN_POINT('Ctrl Pts',(269.994057301888,-70.0865746981214,15.));
#1336=CARTESIAN_POINT('Ctrl Pts',(260.691706524372,-61.9681319891763,15.));
#1337=CARTESIAN_POINT('Ctrl Pts',(249.334859560337,-57.238655451831,15.));
#1338=CARTESIAN_POINT('Ctrl Pts',(237.182545912897,-55.4448669140062,15.));
#1339=CARTESIAN_POINT('Ctrl Pts',(225.467951465034,-55.6721190423754,15.));
#1340=CARTESIAN_POINT('Ctrl Pts',(215.102609644702,-56.8233386650596,15.));
#1341=CARTESIAN_POINT('Ctrl Pts',(206.388727922496,-57.90318512226,15.));
#1342=CARTESIAN_POINT('Ctrl Pts',(198.691561808035,-58.3101250712473,15.));
#1343=CARTESIAN_POINT('Ctrl Pts',(190.901576705844,-57.846788884124,15.));
#1344=CARTESIAN_POINT('Ctrl Pts',(181.918125359512,-56.7094565560834,15.));
#1345=CARTESIAN_POINT('Ctrl Pts',(171.161987193509,-55.5004355299172,15.));
#1346=CARTESIAN_POINT('Ctrl Pts',(158.970169355711,-55.1956787670938,15.));
#1347=CARTESIAN_POINT('Ctrl Pts',(146.25506465527,-56.8590722848865,15.));
#1348=CARTESIAN_POINT('Ctrl Pts',(136.65387828476,-60.4809781898709,15.));
#1349=CARTESIAN_POINT('Ctrl Pts',(130.349225794624,-64.6931075875441,15.));
#1350=CARTESIAN_POINT('Ctrl Pts',(126.684479823527,-68.1337013907929,15.));
#1351=CARTESIAN_POINT('Ctrl Pts',(125.,-70.,15.));
#1352=CARTESIAN_POINT('Ctrl Pts',(123.315520176474,-71.8662986092071,15.));
#1353=CARTESIAN_POINT('Ctrl Pts',(120.242346853464,-75.8908992427869,15.));
#1354=CARTESIAN_POINT('Ctrl Pts',(116.599771279708,-82.7310593769397,15.));
#1355=CARTESIAN_POINT('Ctrl Pts',(113.895892161962,-92.9725267738881,15.));
#1356=CARTESIAN_POINT('Ctrl Pts',(114.246049473122,-105.895859277326,15.));
#1357=CARTESIAN_POINT('Ctrl Pts',(118.160607439652,-117.099966952951,15.));
#1358=CARTESIAN_POINT('Ctrl Pts',(125.261089974031,-125.076822816447,15.));
#1359=CARTESIAN_POINT('Ctrl Pts',(135.052590881314,-129.112506015502,15.));
#1360=CARTESIAN_POINT('Ctrl Pts',(147.010580775258,-129.65666576382,15.));
#1361=CARTESIAN_POINT('Ctrl Pts',(160.591422297932,-127.873898757678,15.));
#1362=CARTESIAN_POINT('Ctrl Pts',(172.615071467829,-125.74444145129,15.));
#1363=CARTESIAN_POINT('Ctrl Pts',(181.968493750173,-124.443230092392,15.));
#1364=CARTESIAN_POINT('Ctrl Pts',(188.347681107188,-123.863843416849,15.));
#1365=CARTESIAN_POINT('Ctrl Pts',(191.691945678131,-123.655642547118,15.));
#1366=CARTESIAN_POINT('Ctrl Pts',(192.000002861023,-123.637283052322,15.));
#1367=CARTESIAN_POINT('',(210.000003129244,-123.758349334059,10.));
#1368=CARTESIAN_POINT('Origin',(210.000003129244,-120.59999730438,10.));
#1369=CARTESIAN_POINT('',(210.000003129244,-120.59999730438,10.));
#1370=CARTESIAN_POINT('',(210.000003129244,-120.59999730438,15.));
#1371=CARTESIAN_POINT('Origin',(196.474855720913,-92.4261722654568,15.));
#1372=CARTESIAN_POINT('Origin',(196.474855720913,-92.4261722654568,10.));
#1373=UNCERTAINTY_MEASURE_WITH_UNIT(LENGTH_MEASURE(0.01),#1377,
'DISTANCE_ACCURACY_VALUE',
'Maximum model space distance between geometric entities at asserted c
onnectivities');
#1374=UNCERTAINTY_MEASURE_WITH_UNIT(LENGTH_MEASURE(0.01),#1377,
'DISTANCE_ACCURACY_VALUE',
'Maximum model space distance between geometric entities at asserted c
onnectivities');
#1375=(
GEOMETRIC_REPRESENTATION_CONTEXT(3)
GLOBAL_UNCERTAINTY_ASSIGNED_CONTEXT((#1373))
GLOBAL_UNIT_ASSIGNED_CONTEXT((#1377,#1379,#1380))
REPRESENTATION_CONTEXT('','3D')
);
#1376=(
GEOMETRIC_REPRESENTATION_CONTEXT(3)
GLOBAL_UNCERTAINTY_ASSIGNED_CONTEXT((#1374))
GLOBAL_UNIT_ASSIGNED_CONTEXT((#1377,#1379,#1380))
REPRESENTATION_CONTEXT('','3D')
);
#1377=(
LENGTH_UNIT()
NAMED_UNIT(*)
SI_UNIT(.MILLI.,.METRE.)
);
#1378=(
LENGTH_UNIT()
NAMED_UNIT(*)
SI_UNIT($,.METRE.)
);
#1379=(
NAMED_UNIT(*)
PLANE_ANGLE_UNIT()
SI_UNIT($,.RADIAN.)
);
#1380=(
NAMED_UNIT(*)
SI_UNIT($,.STERADIAN.)
SOLID_ANGLE_UNIT()
);
#1381=SHAPE_DEFINITION_REPRESENTATION(#1382,#1383);
#1382=PRODUCT_DEFINITION_SHAPE('',$,#1385);
#1383=SHAPE_REPRESENTATION('',(#761),#1375);
#1384=PRODUCT_DEFINITION_CONTEXT('part definition',#1389,'design');
#1385=PRODUCT_DEFINITION('FusionComponent','FusionComponent',#1386,#1384);
#1386=PRODUCT_DEFINITION_FORMATION('',$,#1391);
#1387=PRODUCT_RELATED_PRODUCT_CATEGORY('FusionComponent',
'FusionComponent',(#1391));
#1388=APPLICATION_PROTOCOL_DEFINITION('international standard',
'automotive_design',2009,#1389);
#1389=APPLICATION_CONTEXT(
'Core Data for Automotive Mechanical Design Process');
#1390=PRODUCT_CONTEXT('part definition',#1389,'mechanical');
#1391=PRODUCT('FusionComponent','FusionComponent',$,(#1390));
#1392=PRESENTATION_STYLE_ASSIGNMENT((#1393));
#1393=SURFACE_STYLE_USAGE(.BOTH.,#1394);
#1394=SURFACE_SIDE_STYLE('',(#1395));
#1395=SURFACE_STYLE_FILL_AREA(#1396);
#1396=FILL_AREA_STYLE('Steel - Satin',(#1397));
#1397=FILL_AREA_STYLE_COLOUR('Steel - Satin',#1398);
#1398=COLOUR_RGB('Steel - Satin',0.627450980392157,0.627450980392157,0.627450980392157);
ENDSEC;
END-ISO-10303-21;
