ISO-10303-21;
HEADER;
/* Generated by software containing ST-Developer
 * from STEP Tools, Inc. (www.steptools.com) 
 */

FILE_DESCRIPTION(
/* description */ (''),
/* implementation_level */ '2;1');

FILE_NAME(
/* name */ 'Radio_Controller_Base.step',
/* time_stamp */ '2026-07-01T12:15:21-07:00',
/* author */ (''),
/* organization */ (''),
/* preprocessor_version */ 'ST-DEVELOPER v20.1',
/* originating_system */ 'Autodesk Translation Framework v15.8.0.0',
/* authorisation */ '');

FILE_SCHEMA (('AUTOMOTIVE_DESIGN { 1 0 10303 214 3 1 1 }'));
ENDSEC;

DATA;
#10=MECHANICAL_DESIGN_GEOMETRIC_PRESENTATION_REPRESENTATION('',(#13),#949);
#11=SHAPE_REPRESENTATION_RELATIONSHIP('SRR','None',#956,#12);
#12=ADVANCED_BREP_SHAPE_REPRESENTATION('',(#14),#948);
#13=STYLED_ITEM('',(#965),#14);
#14=MANIFOLD_SOLID_BREP('Body1',#479);
#15=(
BOUNDED_SURFACE()
B_SPLINE_SURFACE(5,1,((#805,#806),(#807,#808),(#809,#810),(#811,#812),(#813,
#814),(#815,#816),(#817,#818),(#819,#820),(#821,#822),(#823,#824),(#825,
#826),(#827,#828),(#829,#830),(#831,#832),(#833,#834),(#835,#836),(#837,
#838),(#839,#840),(#841,#842),(#843,#844),(#845,#846),(#847,#848),(#849,
#850),(#851,#852),(#853,#854),(#855,#856),(#857,#858),(#859,#860),(#861,
#862),(#863,#864),(#865,#866),(#867,#868),(#869,#870),(#871,#872),(#873,
#874),(#875,#876),(#877,#878),(#879,#880),(#881,#882),(#883,#884),(#885,
#886),(#887,#888),(#889,#890),(#891,#892)),.UNSPECIFIED.,.F.,.F.,.F.)
B_SPLINE_SURFACE_WITH_KNOTS((6,1,1,1,1,1,1,1,1,1,1,1,1,1,1,1,1,1,1,1,1,
1,1,1,5,1,1,1,1,1,1,1,1,1,1,6),(2,2),(0.322746840767004,0.342857142857143,
0.371428571428571,0.4,0.428571428571429,0.457142857142857,0.485714285714286,
0.514285714285714,0.542857142857143,0.571428571428572,0.6,0.628571428571429,
0.657142857142857,0.685714285714286,0.714285714285714,0.742857142857143,
0.771428571428572,0.8,0.828571428571429,0.857142857142857,0.885714285714286,
0.914285714285714,0.942857142857143,0.971428571428572,1.,1.02857142857143,
1.05714285714286,1.08571428571429,1.11428571428571,1.14285714285714,1.17142857142857,
1.2,1.22857142857143,1.25714285714286,1.28571428571429,1.28861320414507),
(0.,2.),.UNSPECIFIED.)
GEOMETRIC_REPRESENTATION_ITEM()
RATIONAL_B_SPLINE_SURFACE(((1.,1.),(1.,1.),(1.,1.),(1.,1.),(1.,1.),(1.,
1.),(1.,1.),(1.,1.),(1.,1.),(1.,1.),(1.,1.),(1.,1.),(1.,1.),(1.,1.),(1.,
1.),(1.,1.),(1.,1.),(1.,1.),(1.,1.),(1.,1.),(1.,1.),(1.,1.),(1.,1.),(1.,
1.),(1.,1.),(1.,1.),(1.,1.),(1.,1.),(1.,1.),(1.,1.),(1.,1.),(1.,1.),(1.,
1.),(1.,1.),(1.,1.),(1.,1.),(1.,1.),(1.,1.),(1.,1.),(1.,1.),(1.,1.),(1.,
1.),(1.,1.),(1.,1.)))
REPRESENTATION_ITEM('')
SURFACE()
);
#16=CYLINDRICAL_SURFACE('',#508,1.6);
#17=CYLINDRICAL_SURFACE('',#510,1.6);
#18=CYLINDRICAL_SURFACE('',#512,1.6);
#19=CYLINDRICAL_SURFACE('',#514,1.6);
#20=FACE_BOUND('',#73,.T.);
#21=FACE_BOUND('',#74,.T.);
#22=FACE_BOUND('',#75,.T.);
#23=FACE_BOUND('',#76,.T.);
#24=FACE_BOUND('',#90,.T.);
#25=FACE_BOUND('',#91,.T.);
#26=FACE_BOUND('',#92,.T.);
#27=FACE_BOUND('',#93,.T.);
#28=CIRCLE('',#504,1.6);
#29=CIRCLE('',#505,1.6);
#30=CIRCLE('',#506,1.6);
#31=CIRCLE('',#507,1.6);
#32=CIRCLE('',#509,1.6);
#33=CIRCLE('',#511,1.6);
#34=CIRCLE('',#513,1.6);
#35=CIRCLE('',#515,1.6);
#36=(
BOUNDED_CURVE()
B_SPLINE_CURVE(5,(#708,#709,#710,#711,#712,#713,#714,#715,#716,#717,#718,
#719,#720,#721,#722,#723,#724,#725,#726,#727,#728,#729,#730,#731,#732,#733,
#734,#735,#736,#737,#738,#739,#740,#741,#742,#743,#744,#745,#746,#747,#748,
#749,#750,#751),.UNSPECIFIED.,.F.,.F.)
B_SPLINE_CURVE_WITH_KNOTS((6,1,1,1,1,1,1,1,1,1,1,1,1,1,1,1,1,1,1,1,1,1,
1,1,5,1,1,1,1,1,1,1,1,1,1,6),(0.322746840767004,0.342857142857143,0.371428571428571,
0.4,0.428571428571429,0.457142857142857,0.485714285714286,0.514285714285714,
0.542857142857143,0.571428571428572,0.6,0.628571428571429,0.657142857142857,
0.685714285714286,0.714285714285714,0.742857142857143,0.771428571428572,
0.8,0.828571428571429,0.857142857142857,0.885714285714286,0.914285714285714,
0.942857142857143,0.971428571428572,1.,1.02857142857143,1.05714285714286,
1.08571428571429,1.11428571428571,1.14285714285714,1.17142857142857,1.2,
1.22857142857143,1.25714285714286,1.28571428571429,1.28861320414507),
 .UNSPECIFIED.)
CURVE()
GEOMETRIC_REPRESENTATION_ITEM()
RATIONAL_B_SPLINE_CURVE((1.,1.,1.,1.,1.,1.,1.,1.,1.,1.,1.,1.,1.,1.,1.,1.,
1.,1.,1.,1.,1.,1.,1.,1.,1.,1.,1.,1.,1.,1.,1.,1.,1.,1.,1.,1.,1.,1.,1.,1.,
1.,1.,1.,1.))
REPRESENTATION_ITEM('')
);
#37=(
BOUNDED_CURVE()
B_SPLINE_CURVE(5,(#894,#895,#896,#897,#898,#899,#900,#901,#902,#903,#904,
#905,#906,#907,#908,#909,#910,#911,#912,#913,#914,#915,#916,#917,#918,#919,
#920,#921,#922,#923,#924,#925,#926,#927,#928,#929,#930,#931,#932,#933,#934,
#935,#936,#937),.UNSPECIFIED.,.F.,.F.)
B_SPLINE_CURVE_WITH_KNOTS((6,1,1,1,1,1,1,1,1,1,1,1,1,1,1,1,1,1,1,1,1,1,
1,1,5,1,1,1,1,1,1,1,1,1,1,6),(0.322746840767003,0.342857142857143,0.371428571428571,
0.4,0.428571428571429,0.457142857142857,0.485714285714286,0.514285714285714,
0.542857142857143,0.571428571428572,0.6,0.628571428571429,0.657142857142857,
0.685714285714286,0.714285714285714,0.742857142857143,0.771428571428572,
0.8,0.828571428571429,0.857142857142857,0.885714285714286,0.914285714285714,
0.942857142857143,0.971428571428572,1.,1.02857142857143,1.05714285714286,
1.08571428571429,1.11428571428571,1.14285714285714,1.17142857142857,1.2,
1.22857142857143,1.25714285714286,1.28571428571429,1.28861320414507),
 .UNSPECIFIED.)
CURVE()
GEOMETRIC_REPRESENTATION_ITEM()
RATIONAL_B_SPLINE_CURVE((1.,1.,1.,1.,1.,1.,1.,1.,1.,1.,1.,1.,1.,1.,1.,1.,
1.,1.,1.,1.,1.,1.,1.,1.,1.,1.,1.,1.,1.,1.,1.,1.,1.,1.,1.,1.,1.,1.,1.,1.,
1.,1.,1.,1.))
REPRESENTATION_ITEM('')
);
#38=FACE_OUTER_BOUND('',#62,.T.);
#39=FACE_OUTER_BOUND('',#63,.T.);
#40=FACE_OUTER_BOUND('',#64,.T.);
#41=FACE_OUTER_BOUND('',#65,.T.);
#42=FACE_OUTER_BOUND('',#66,.T.);
#43=FACE_OUTER_BOUND('',#67,.T.);
#44=FACE_OUTER_BOUND('',#68,.T.);
#45=FACE_OUTER_BOUND('',#69,.T.);
#46=FACE_OUTER_BOUND('',#70,.T.);
#47=FACE_OUTER_BOUND('',#71,.T.);
#48=FACE_OUTER_BOUND('',#72,.T.);
#49=FACE_OUTER_BOUND('',#77,.T.);
#50=FACE_OUTER_BOUND('',#78,.T.);
#51=FACE_OUTER_BOUND('',#79,.T.);
#52=FACE_OUTER_BOUND('',#80,.T.);
#53=FACE_OUTER_BOUND('',#81,.T.);
#54=FACE_OUTER_BOUND('',#82,.T.);
#55=FACE_OUTER_BOUND('',#83,.T.);
#56=FACE_OUTER_BOUND('',#84,.T.);
#57=FACE_OUTER_BOUND('',#85,.T.);
#58=FACE_OUTER_BOUND('',#86,.T.);
#59=FACE_OUTER_BOUND('',#87,.T.);
#60=FACE_OUTER_BOUND('',#88,.T.);
#61=FACE_OUTER_BOUND('',#89,.T.);
#62=EDGE_LOOP('',(#308,#309,#310,#311));
#63=EDGE_LOOP('',(#312,#313,#314,#315));
#64=EDGE_LOOP('',(#316,#317,#318,#319));
#65=EDGE_LOOP('',(#320,#321,#322,#323));
#66=EDGE_LOOP('',(#324,#325,#326,#327));
#67=EDGE_LOOP('',(#328,#329,#330,#331));
#68=EDGE_LOOP('',(#332,#333,#334,#335));
#69=EDGE_LOOP('',(#336,#337,#338,#339));
#70=EDGE_LOOP('',(#340,#341,#342,#343));
#71=EDGE_LOOP('',(#344,#345,#346,#347,#348,#349,#350,#351,#352,#353,#354,
#355,#356,#357,#358,#359));
#72=EDGE_LOOP('',(#360,#361,#362,#363,#364,#365,#366,#367,#368,#369));
#73=EDGE_LOOP('',(#370));
#74=EDGE_LOOP('',(#371));
#75=EDGE_LOOP('',(#372));
#76=EDGE_LOOP('',(#373));
#77=EDGE_LOOP('',(#374,#375,#376,#377));
#78=EDGE_LOOP('',(#378,#379,#380,#381));
#79=EDGE_LOOP('',(#382,#383,#384,#385));
#80=EDGE_LOOP('',(#386,#387,#388,#389));
#81=EDGE_LOOP('',(#390,#391,#392,#393,#394));
#82=EDGE_LOOP('',(#395,#396,#397,#398));
#83=EDGE_LOOP('',(#399,#400,#401,#402,#403));
#84=EDGE_LOOP('',(#404,#405,#406,#407));
#85=EDGE_LOOP('',(#408,#409,#410,#411));
#86=EDGE_LOOP('',(#412,#413,#414,#415));
#87=EDGE_LOOP('',(#416,#417,#418,#419));
#88=EDGE_LOOP('',(#420,#421,#422,#423));
#89=EDGE_LOOP('',(#424,#425,#426,#427,#428,#429,#430,#431));
#90=EDGE_LOOP('',(#432));
#91=EDGE_LOOP('',(#433));
#92=EDGE_LOOP('',(#434));
#93=EDGE_LOOP('',(#435));
#94=LINE('',#646,#148);
#95=LINE('',#648,#149);
#96=LINE('',#650,#150);
#97=LINE('',#651,#151);
#98=LINE('',#654,#152);
#99=LINE('',#656,#153);
#100=LINE('',#657,#154);
#101=LINE('',#660,#155);
#102=LINE('',#662,#156);
#103=LINE('',#663,#157);
#104=LINE('',#666,#158);
#105=LINE('',#668,#159);
#106=LINE('',#669,#160);
#107=LINE('',#672,#161);
#108=LINE('',#674,#162);
#109=LINE('',#675,#163);
#110=LINE('',#678,#164);
#111=LINE('',#680,#165);
#112=LINE('',#681,#166);
#113=LINE('',#684,#167);
#114=LINE('',#686,#168);
#115=LINE('',#687,#169);
#116=LINE('',#690,#170);
#117=LINE('',#692,#171);
#118=LINE('',#693,#172);
#119=LINE('',#696,#173);
#120=LINE('',#698,#174);
#121=LINE('',#699,#175);
#122=LINE('',#702,#176);
#123=LINE('',#704,#177);
#124=LINE('',#706,#178);
#125=LINE('',#753,#179);
#126=LINE('',#755,#180);
#127=LINE('',#756,#181);
#128=LINE('',#758,#182);
#129=LINE('',#769,#183);
#130=LINE('',#773,#184);
#131=LINE('',#777,#185);
#132=LINE('',#781,#186);
#133=LINE('',#786,#187);
#134=LINE('',#787,#188);
#135=LINE('',#788,#189);
#136=LINE('',#791,#190);
#137=LINE('',#792,#191);
#138=LINE('',#795,#192);
#139=LINE('',#796,#193);
#140=LINE('',#799,#194);
#141=LINE('',#800,#195);
#142=LINE('',#803,#196);
#143=LINE('',#804,#197);
#144=LINE('',#938,#198);
#145=LINE('',#941,#199);
#146=LINE('',#942,#200);
#147=LINE('',#944,#201);
#148=VECTOR('',#528,10.);
#149=VECTOR('',#529,10.);
#150=VECTOR('',#530,10.);
#151=VECTOR('',#531,10.);
#152=VECTOR('',#534,10.);
#153=VECTOR('',#535,10.);
#154=VECTOR('',#536,10.);
#155=VECTOR('',#539,10.);
#156=VECTOR('',#540,10.);
#157=VECTOR('',#541,10.);
#158=VECTOR('',#544,10.);
#159=VECTOR('',#545,10.);
#160=VECTOR('',#546,10.);
#161=VECTOR('',#549,10.);
#162=VECTOR('',#550,10.);
#163=VECTOR('',#551,10.);
#164=VECTOR('',#554,10.);
#165=VECTOR('',#555,10.);
#166=VECTOR('',#556,10.);
#167=VECTOR('',#559,10.);
#168=VECTOR('',#560,10.);
#169=VECTOR('',#561,10.);
#170=VECTOR('',#564,10.);
#171=VECTOR('',#565,10.);
#172=VECTOR('',#566,10.);
#173=VECTOR('',#569,10.);
#174=VECTOR('',#570,10.);
#175=VECTOR('',#571,10.);
#176=VECTOR('',#574,10.);
#177=VECTOR('',#575,10.);
#178=VECTOR('',#576,10.);
#179=VECTOR('',#577,10.);
#180=VECTOR('',#578,10.);
#181=VECTOR('',#579,10.);
#182=VECTOR('',#582,10.);
#183=VECTOR('',#593,1.6);
#184=VECTOR('',#598,1.6);
#185=VECTOR('',#603,1.6);
#186=VECTOR('',#608,1.6);
#187=VECTOR('',#613,10.);
#188=VECTOR('',#614,10.);
#189=VECTOR('',#615,10.);
#190=VECTOR('',#618,10.);
#191=VECTOR('',#619,10.);
#192=VECTOR('',#622,10.);
#193=VECTOR('',#623,10.);
#194=VECTOR('',#626,10.);
#195=VECTOR('',#627,10.);
#196=VECTOR('',#630,10.);
#197=VECTOR('',#631,10.);
#198=VECTOR('',#632,10.);
#199=VECTOR('',#635,10.);
#200=VECTOR('',#636,10.);
#201=VECTOR('',#639,10.);
#202=VERTEX_POINT('',#644);
#203=VERTEX_POINT('',#645);
#204=VERTEX_POINT('',#647);
#205=VERTEX_POINT('',#649);
#206=VERTEX_POINT('',#653);
#207=VERTEX_POINT('',#655);
#208=VERTEX_POINT('',#659);
#209=VERTEX_POINT('',#661);
#210=VERTEX_POINT('',#665);
#211=VERTEX_POINT('',#667);
#212=VERTEX_POINT('',#671);
#213=VERTEX_POINT('',#673);
#214=VERTEX_POINT('',#677);
#215=VERTEX_POINT('',#679);
#216=VERTEX_POINT('',#683);
#217=VERTEX_POINT('',#685);
#218=VERTEX_POINT('',#689);
#219=VERTEX_POINT('',#691);
#220=VERTEX_POINT('',#695);
#221=VERTEX_POINT('',#697);
#222=VERTEX_POINT('',#701);
#223=VERTEX_POINT('',#703);
#224=VERTEX_POINT('',#705);
#225=VERTEX_POINT('',#707);
#226=VERTEX_POINT('',#752);
#227=VERTEX_POINT('',#754);
#228=VERTEX_POINT('',#759);
#229=VERTEX_POINT('',#761);
#230=VERTEX_POINT('',#763);
#231=VERTEX_POINT('',#765);
#232=VERTEX_POINT('',#768);
#233=VERTEX_POINT('',#772);
#234=VERTEX_POINT('',#776);
#235=VERTEX_POINT('',#780);
#236=VERTEX_POINT('',#784);
#237=VERTEX_POINT('',#785);
#238=VERTEX_POINT('',#790);
#239=VERTEX_POINT('',#794);
#240=VERTEX_POINT('',#798);
#241=VERTEX_POINT('',#802);
#242=VERTEX_POINT('',#893);
#243=VERTEX_POINT('',#940);
#244=EDGE_CURVE('',#202,#203,#94,.T.);
#245=EDGE_CURVE('',#202,#204,#95,.T.);
#246=EDGE_CURVE('',#205,#204,#96,.T.);
#247=EDGE_CURVE('',#203,#205,#97,.F.);
#248=EDGE_CURVE('',#203,#206,#98,.T.);
#249=EDGE_CURVE('',#207,#205,#99,.T.);
#250=EDGE_CURVE('',#206,#207,#100,.F.);
#251=EDGE_CURVE('',#206,#208,#101,.T.);
#252=EDGE_CURVE('',#209,#207,#102,.T.);
#253=EDGE_CURVE('',#208,#209,#103,.T.);
#254=EDGE_CURVE('',#208,#210,#104,.T.);
#255=EDGE_CURVE('',#211,#209,#105,.T.);
#256=EDGE_CURVE('',#210,#211,#106,.T.);
#257=EDGE_CURVE('',#210,#212,#107,.T.);
#258=EDGE_CURVE('',#213,#211,#108,.T.);
#259=EDGE_CURVE('',#212,#213,#109,.F.);
#260=EDGE_CURVE('',#212,#214,#110,.T.);
#261=EDGE_CURVE('',#215,#213,#111,.T.);
#262=EDGE_CURVE('',#214,#215,#112,.F.);
#263=EDGE_CURVE('',#214,#216,#113,.T.);
#264=EDGE_CURVE('',#217,#215,#114,.T.);
#265=EDGE_CURVE('',#216,#217,#115,.T.);
#266=EDGE_CURVE('',#216,#218,#116,.T.);
#267=EDGE_CURVE('',#219,#217,#117,.T.);
#268=EDGE_CURVE('',#218,#219,#118,.T.);
#269=EDGE_CURVE('',#218,#220,#119,.T.);
#270=EDGE_CURVE('',#221,#219,#120,.T.);
#271=EDGE_CURVE('',#220,#221,#121,.T.);
#272=EDGE_CURVE('',#204,#222,#122,.T.);
#273=EDGE_CURVE('',#222,#223,#123,.T.);
#274=EDGE_CURVE('',#223,#224,#124,.T.);
#275=EDGE_CURVE('',#224,#225,#36,.T.);
#276=EDGE_CURVE('',#225,#226,#125,.T.);
#277=EDGE_CURVE('',#226,#227,#126,.T.);
#278=EDGE_CURVE('',#227,#221,#127,.T.);
#279=EDGE_CURVE('',#220,#202,#128,.T.);
#280=EDGE_CURVE('',#228,#228,#28,.T.);
#281=EDGE_CURVE('',#229,#229,#29,.T.);
#282=EDGE_CURVE('',#230,#230,#30,.T.);
#283=EDGE_CURVE('',#231,#231,#31,.T.);
#284=EDGE_CURVE('',#228,#232,#129,.T.);
#285=EDGE_CURVE('',#232,#232,#32,.T.);
#286=EDGE_CURVE('',#229,#233,#130,.T.);
#287=EDGE_CURVE('',#233,#233,#33,.T.);
#288=EDGE_CURVE('',#230,#234,#131,.T.);
#289=EDGE_CURVE('',#234,#234,#34,.T.);
#290=EDGE_CURVE('',#231,#235,#132,.T.);
#291=EDGE_CURVE('',#235,#235,#35,.T.);
#292=EDGE_CURVE('',#236,#237,#133,.T.);
#293=EDGE_CURVE('',#236,#222,#134,.T.);
#294=EDGE_CURVE('',#237,#202,#135,.T.);
#295=EDGE_CURVE('',#237,#238,#136,.T.);
#296=EDGE_CURVE('',#238,#220,#137,.T.);
#297=EDGE_CURVE('',#238,#239,#138,.T.);
#298=EDGE_CURVE('',#239,#227,#139,.T.);
#299=EDGE_CURVE('',#239,#240,#140,.T.);
#300=EDGE_CURVE('',#240,#226,#141,.T.);
#301=EDGE_CURVE('',#240,#241,#142,.T.);
#302=EDGE_CURVE('',#241,#225,#143,.T.);
#303=EDGE_CURVE('',#242,#241,#37,.T.);
#304=EDGE_CURVE('',#242,#224,#144,.T.);
#305=EDGE_CURVE('',#243,#242,#145,.T.);
#306=EDGE_CURVE('',#243,#223,#146,.T.);
#307=EDGE_CURVE('',#236,#243,#147,.T.);
#308=ORIENTED_EDGE('',*,*,#244,.F.);
#309=ORIENTED_EDGE('',*,*,#245,.T.);
#310=ORIENTED_EDGE('',*,*,#246,.F.);
#311=ORIENTED_EDGE('',*,*,#247,.F.);
#312=ORIENTED_EDGE('',*,*,#248,.F.);
#313=ORIENTED_EDGE('',*,*,#247,.T.);
#314=ORIENTED_EDGE('',*,*,#249,.F.);
#315=ORIENTED_EDGE('',*,*,#250,.F.);
#316=ORIENTED_EDGE('',*,*,#251,.F.);
#317=ORIENTED_EDGE('',*,*,#250,.T.);
#318=ORIENTED_EDGE('',*,*,#252,.F.);
#319=ORIENTED_EDGE('',*,*,#253,.F.);
#320=ORIENTED_EDGE('',*,*,#254,.F.);
#321=ORIENTED_EDGE('',*,*,#253,.T.);
#322=ORIENTED_EDGE('',*,*,#255,.F.);
#323=ORIENTED_EDGE('',*,*,#256,.F.);
#324=ORIENTED_EDGE('',*,*,#257,.F.);
#325=ORIENTED_EDGE('',*,*,#256,.T.);
#326=ORIENTED_EDGE('',*,*,#258,.F.);
#327=ORIENTED_EDGE('',*,*,#259,.F.);
#328=ORIENTED_EDGE('',*,*,#260,.F.);
#329=ORIENTED_EDGE('',*,*,#259,.T.);
#330=ORIENTED_EDGE('',*,*,#261,.F.);
#331=ORIENTED_EDGE('',*,*,#262,.F.);
#332=ORIENTED_EDGE('',*,*,#263,.F.);
#333=ORIENTED_EDGE('',*,*,#262,.T.);
#334=ORIENTED_EDGE('',*,*,#264,.F.);
#335=ORIENTED_EDGE('',*,*,#265,.F.);
#336=ORIENTED_EDGE('',*,*,#266,.F.);
#337=ORIENTED_EDGE('',*,*,#265,.T.);
#338=ORIENTED_EDGE('',*,*,#267,.F.);
#339=ORIENTED_EDGE('',*,*,#268,.F.);
#340=ORIENTED_EDGE('',*,*,#269,.F.);
#341=ORIENTED_EDGE('',*,*,#268,.T.);
#342=ORIENTED_EDGE('',*,*,#270,.F.);
#343=ORIENTED_EDGE('',*,*,#271,.F.);
#344=ORIENTED_EDGE('',*,*,#270,.T.);
#345=ORIENTED_EDGE('',*,*,#267,.T.);
#346=ORIENTED_EDGE('',*,*,#264,.T.);
#347=ORIENTED_EDGE('',*,*,#261,.T.);
#348=ORIENTED_EDGE('',*,*,#258,.T.);
#349=ORIENTED_EDGE('',*,*,#255,.T.);
#350=ORIENTED_EDGE('',*,*,#252,.T.);
#351=ORIENTED_EDGE('',*,*,#249,.T.);
#352=ORIENTED_EDGE('',*,*,#246,.T.);
#353=ORIENTED_EDGE('',*,*,#272,.T.);
#354=ORIENTED_EDGE('',*,*,#273,.T.);
#355=ORIENTED_EDGE('',*,*,#274,.T.);
#356=ORIENTED_EDGE('',*,*,#275,.T.);
#357=ORIENTED_EDGE('',*,*,#276,.T.);
#358=ORIENTED_EDGE('',*,*,#277,.T.);
#359=ORIENTED_EDGE('',*,*,#278,.T.);
#360=ORIENTED_EDGE('',*,*,#244,.T.);
#361=ORIENTED_EDGE('',*,*,#248,.T.);
#362=ORIENTED_EDGE('',*,*,#251,.T.);
#363=ORIENTED_EDGE('',*,*,#254,.T.);
#364=ORIENTED_EDGE('',*,*,#257,.T.);
#365=ORIENTED_EDGE('',*,*,#260,.T.);
#366=ORIENTED_EDGE('',*,*,#263,.T.);
#367=ORIENTED_EDGE('',*,*,#266,.T.);
#368=ORIENTED_EDGE('',*,*,#269,.T.);
#369=ORIENTED_EDGE('',*,*,#279,.T.);
#370=ORIENTED_EDGE('',*,*,#280,.T.);
#371=ORIENTED_EDGE('',*,*,#281,.T.);
#372=ORIENTED_EDGE('',*,*,#282,.T.);
#373=ORIENTED_EDGE('',*,*,#283,.T.);
#374=ORIENTED_EDGE('',*,*,#280,.F.);
#375=ORIENTED_EDGE('',*,*,#284,.T.);
#376=ORIENTED_EDGE('',*,*,#285,.T.);
#377=ORIENTED_EDGE('',*,*,#284,.F.);
#378=ORIENTED_EDGE('',*,*,#281,.F.);
#379=ORIENTED_EDGE('',*,*,#286,.T.);
#380=ORIENTED_EDGE('',*,*,#287,.T.);
#381=ORIENTED_EDGE('',*,*,#286,.F.);
#382=ORIENTED_EDGE('',*,*,#282,.F.);
#383=ORIENTED_EDGE('',*,*,#288,.T.);
#384=ORIENTED_EDGE('',*,*,#289,.T.);
#385=ORIENTED_EDGE('',*,*,#288,.F.);
#386=ORIENTED_EDGE('',*,*,#283,.F.);
#387=ORIENTED_EDGE('',*,*,#290,.T.);
#388=ORIENTED_EDGE('',*,*,#291,.T.);
#389=ORIENTED_EDGE('',*,*,#290,.F.);
#390=ORIENTED_EDGE('',*,*,#292,.F.);
#391=ORIENTED_EDGE('',*,*,#293,.T.);
#392=ORIENTED_EDGE('',*,*,#272,.F.);
#393=ORIENTED_EDGE('',*,*,#245,.F.);
#394=ORIENTED_EDGE('',*,*,#294,.F.);
#395=ORIENTED_EDGE('',*,*,#295,.F.);
#396=ORIENTED_EDGE('',*,*,#294,.T.);
#397=ORIENTED_EDGE('',*,*,#279,.F.);
#398=ORIENTED_EDGE('',*,*,#296,.F.);
#399=ORIENTED_EDGE('',*,*,#297,.F.);
#400=ORIENTED_EDGE('',*,*,#296,.T.);
#401=ORIENTED_EDGE('',*,*,#271,.T.);
#402=ORIENTED_EDGE('',*,*,#278,.F.);
#403=ORIENTED_EDGE('',*,*,#298,.F.);
#404=ORIENTED_EDGE('',*,*,#299,.F.);
#405=ORIENTED_EDGE('',*,*,#298,.T.);
#406=ORIENTED_EDGE('',*,*,#277,.F.);
#407=ORIENTED_EDGE('',*,*,#300,.F.);
#408=ORIENTED_EDGE('',*,*,#301,.F.);
#409=ORIENTED_EDGE('',*,*,#300,.T.);
#410=ORIENTED_EDGE('',*,*,#276,.F.);
#411=ORIENTED_EDGE('',*,*,#302,.F.);
#412=ORIENTED_EDGE('',*,*,#303,.T.);
#413=ORIENTED_EDGE('',*,*,#302,.T.);
#414=ORIENTED_EDGE('',*,*,#275,.F.);
#415=ORIENTED_EDGE('',*,*,#304,.F.);
#416=ORIENTED_EDGE('',*,*,#305,.T.);
#417=ORIENTED_EDGE('',*,*,#304,.T.);
#418=ORIENTED_EDGE('',*,*,#274,.F.);
#419=ORIENTED_EDGE('',*,*,#306,.F.);
#420=ORIENTED_EDGE('',*,*,#307,.T.);
#421=ORIENTED_EDGE('',*,*,#306,.T.);
#422=ORIENTED_EDGE('',*,*,#273,.F.);
#423=ORIENTED_EDGE('',*,*,#293,.F.);
#424=ORIENTED_EDGE('',*,*,#307,.F.);
#425=ORIENTED_EDGE('',*,*,#292,.T.);
#426=ORIENTED_EDGE('',*,*,#295,.T.);
#427=ORIENTED_EDGE('',*,*,#297,.T.);
#428=ORIENTED_EDGE('',*,*,#299,.T.);
#429=ORIENTED_EDGE('',*,*,#301,.T.);
#430=ORIENTED_EDGE('',*,*,#303,.F.);
#431=ORIENTED_EDGE('',*,*,#305,.F.);
#432=ORIENTED_EDGE('',*,*,#291,.F.);
#433=ORIENTED_EDGE('',*,*,#289,.F.);
#434=ORIENTED_EDGE('',*,*,#287,.F.);
#435=ORIENTED_EDGE('',*,*,#285,.F.);
#436=PLANE('',#493);
#437=PLANE('',#494);
#438=PLANE('',#495);
#439=PLANE('',#496);
#440=PLANE('',#497);
#441=PLANE('',#498);
#442=PLANE('',#499);
#443=PLANE('',#500);
#444=PLANE('',#501);
#445=PLANE('',#502);
#446=PLANE('',#503);
#447=PLANE('',#516);
#448=PLANE('',#517);
#449=PLANE('',#518);
#450=PLANE('',#519);
#451=PLANE('',#520);
#452=PLANE('',#521);
#453=PLANE('',#522);
#454=PLANE('',#523);
#455=ADVANCED_FACE('',(#38),#436,.T.);
#456=ADVANCED_FACE('',(#39),#437,.T.);
#457=ADVANCED_FACE('',(#40),#438,.T.);
#458=ADVANCED_FACE('',(#41),#439,.T.);
#459=ADVANCED_FACE('',(#42),#440,.T.);
#460=ADVANCED_FACE('',(#43),#441,.T.);
#461=ADVANCED_FACE('',(#44),#442,.T.);
#462=ADVANCED_FACE('',(#45),#443,.T.);
#463=ADVANCED_FACE('',(#46),#444,.T.);
#464=ADVANCED_FACE('',(#47),#445,.T.);
#465=ADVANCED_FACE('',(#48,#20,#21,#22,#23),#446,.T.);
#466=ADVANCED_FACE('',(#49),#16,.F.);
#467=ADVANCED_FACE('',(#50),#17,.F.);
#468=ADVANCED_FACE('',(#51),#18,.F.);
#469=ADVANCED_FACE('',(#52),#19,.F.);
#470=ADVANCED_FACE('',(#53),#447,.T.);
#471=ADVANCED_FACE('',(#54),#448,.T.);
#472=ADVANCED_FACE('',(#55),#449,.T.);
#473=ADVANCED_FACE('',(#56),#450,.T.);
#474=ADVANCED_FACE('',(#57),#451,.T.);
#475=ADVANCED_FACE('',(#58),#15,.T.);
#476=ADVANCED_FACE('',(#59),#452,.T.);
#477=ADVANCED_FACE('',(#60),#453,.T.);
#478=ADVANCED_FACE('',(#61,#24,#25,#26,#27),#454,.F.);
#479=CLOSED_SHELL('',(#455,#456,#457,#458,#459,#460,#461,#462,#463,#464,
#465,#466,#467,#468,#469,#470,#471,#472,#473,#474,#475,#476,#477,#478));
#480=DERIVED_UNIT_ELEMENT(#482,1.);
#481=DERIVED_UNIT_ELEMENT(#951,-3.);
#482=(
MASS_UNIT()
NAMED_UNIT(*)
SI_UNIT(.KILO.,.GRAM.)
);
#483=DERIVED_UNIT((#480,#481));
#484=MEASURE_REPRESENTATION_ITEM('density measure',
POSITIVE_RATIO_MEASURE(7850.),#483);
#485=PROPERTY_DEFINITION_REPRESENTATION(#490,#487);
#486=PROPERTY_DEFINITION_REPRESENTATION(#491,#488);
#487=REPRESENTATION('material name',(#489),#948);
#488=REPRESENTATION('density',(#484),#948);
#489=DESCRIPTIVE_REPRESENTATION_ITEM('Steel','Steel');
#490=PROPERTY_DEFINITION('material property','material name',#958);
#491=PROPERTY_DEFINITION('material property','density of part',#958);
#492=AXIS2_PLACEMENT_3D('',#642,#524,#525);
#493=AXIS2_PLACEMENT_3D('',#643,#526,#527);
#494=AXIS2_PLACEMENT_3D('',#652,#532,#533);
#495=AXIS2_PLACEMENT_3D('',#658,#537,#538);
#496=AXIS2_PLACEMENT_3D('',#664,#542,#543);
#497=AXIS2_PLACEMENT_3D('',#670,#547,#548);
#498=AXIS2_PLACEMENT_3D('',#676,#552,#553);
#499=AXIS2_PLACEMENT_3D('',#682,#557,#558);
#500=AXIS2_PLACEMENT_3D('',#688,#562,#563);
#501=AXIS2_PLACEMENT_3D('',#694,#567,#568);
#502=AXIS2_PLACEMENT_3D('',#700,#572,#573);
#503=AXIS2_PLACEMENT_3D('',#757,#580,#581);
#504=AXIS2_PLACEMENT_3D('',#760,#583,#584);
#505=AXIS2_PLACEMENT_3D('',#762,#585,#586);
#506=AXIS2_PLACEMENT_3D('',#764,#587,#588);
#507=AXIS2_PLACEMENT_3D('',#766,#589,#590);
#508=AXIS2_PLACEMENT_3D('',#767,#591,#592);
#509=AXIS2_PLACEMENT_3D('',#770,#594,#595);
#510=AXIS2_PLACEMENT_3D('',#771,#596,#597);
#511=AXIS2_PLACEMENT_3D('',#774,#599,#600);
#512=AXIS2_PLACEMENT_3D('',#775,#601,#602);
#513=AXIS2_PLACEMENT_3D('',#778,#604,#605);
#514=AXIS2_PLACEMENT_3D('',#779,#606,#607);
#515=AXIS2_PLACEMENT_3D('',#782,#609,#610);
#516=AXIS2_PLACEMENT_3D('',#783,#611,#612);
#517=AXIS2_PLACEMENT_3D('',#789,#616,#617);
#518=AXIS2_PLACEMENT_3D('',#793,#620,#621);
#519=AXIS2_PLACEMENT_3D('',#797,#624,#625);
#520=AXIS2_PLACEMENT_3D('',#801,#628,#629);
#521=AXIS2_PLACEMENT_3D('',#939,#633,#634);
#522=AXIS2_PLACEMENT_3D('',#943,#637,#638);
#523=AXIS2_PLACEMENT_3D('',#945,#640,#641);
#524=DIRECTION('axis',(0.,0.,1.));
#525=DIRECTION('refdir',(1.,0.,0.));
#526=DIRECTION('center_axis',(0.,1.,0.));
#527=DIRECTION('ref_axis',(-1.,0.,0.));
#528=DIRECTION('',(1.,0.,0.));
#529=DIRECTION('',(0.,0.,1.));
#530=DIRECTION('',(-1.,0.,0.));
#531=DIRECTION('',(0.,0.,-1.));
#532=DIRECTION('center_axis',(-0.999999786407006,0.000653594631638566,0.));
#533=DIRECTION('ref_axis',(-0.000653594631638566,-0.999999786407006,0.));
#534=DIRECTION('',(0.000653594631638566,0.999999786407006,0.));
#535=DIRECTION('',(-0.000653594631638566,-0.999999786407006,0.));
#536=DIRECTION('',(0.,0.,-1.));
#537=DIRECTION('center_axis',(-0.000753011834703726,-0.999999716486548,
0.));
#538=DIRECTION('ref_axis',(0.999999716486548,-0.000753011834703726,0.));
#539=DIRECTION('',(-0.999999716486548,0.000753011834703726,0.));
#540=DIRECTION('',(0.999999716486548,-0.000753011834703726,0.));
#541=DIRECTION('',(0.,0.,1.));
#542=DIRECTION('center_axis',(-0.76621856605089,-0.642580040959037,0.));
#543=DIRECTION('ref_axis',(0.642580040959037,-0.76621856605089,0.));
#544=DIRECTION('',(-0.642580040959037,0.76621856605089,0.));
#545=DIRECTION('',(0.642580040959037,-0.76621856605089,0.));
#546=DIRECTION('',(0.,0.,1.));
#547=DIRECTION('center_axis',(0.,-1.,0.));
#548=DIRECTION('ref_axis',(1.,0.,0.));
#549=DIRECTION('',(-1.,0.,0.));
#550=DIRECTION('',(1.,0.,0.));
#551=DIRECTION('',(0.,0.,-1.));
#552=DIRECTION('center_axis',(0.766228253136097,-0.642568489809457,0.));
#553=DIRECTION('ref_axis',(0.642568489809457,0.766228253136097,0.));
#554=DIRECTION('',(-0.642568489809457,-0.766228253136097,0.));
#555=DIRECTION('',(0.642568489809457,0.766228253136097,0.));
#556=DIRECTION('',(0.,0.,-1.));
#557=DIRECTION('center_axis',(0.000680735036283103,-0.999999768299878,0.));
#558=DIRECTION('ref_axis',(0.999999768299878,0.000680735036283103,0.));
#559=DIRECTION('',(-0.999999768299878,-0.000680735036283103,0.));
#560=DIRECTION('',(0.999999768299878,0.000680735036283103,0.));
#561=DIRECTION('',(0.,0.,1.));
#562=DIRECTION('center_axis',(0.999999906095474,0.000433369406758602,0.));
#563=DIRECTION('ref_axis',(-0.000433369406758602,0.999999906095474,0.));
#564=DIRECTION('',(0.000433369406758602,-0.999999906095474,0.));
#565=DIRECTION('',(-0.000433369406758602,0.999999906095474,0.));
#566=DIRECTION('',(0.,0.,1.));
#567=DIRECTION('center_axis',(0.,1.,0.));
#568=DIRECTION('ref_axis',(-1.,0.,0.));
#569=DIRECTION('',(1.,0.,0.));
#570=DIRECTION('',(-1.,0.,0.));
#571=DIRECTION('',(0.,0.,1.));
#572=DIRECTION('center_axis',(0.,0.,1.));
#573=DIRECTION('ref_axis',(1.,0.,0.));
#574=DIRECTION('',(0.,-1.,0.));
#575=DIRECTION('',(1.,0.,0.));
#576=DIRECTION('',(0.,-1.,0.));
#577=DIRECTION('',(0.,1.,0.));
#578=DIRECTION('',(1.,0.,0.));
#579=DIRECTION('',(0.,1.,0.));
#580=DIRECTION('center_axis',(0.,0.,1.));
#581=DIRECTION('ref_axis',(1.,0.,0.));
#582=DIRECTION('',(1.,0.,0.));
#583=DIRECTION('center_axis',(0.,0.,-1.));
#584=DIRECTION('ref_axis',(1.,0.,0.));
#585=DIRECTION('center_axis',(0.,0.,-1.));
#586=DIRECTION('ref_axis',(1.,0.,0.));
#587=DIRECTION('center_axis',(0.,0.,-1.));
#588=DIRECTION('ref_axis',(1.,0.,0.));
#589=DIRECTION('center_axis',(0.,0.,-1.));
#590=DIRECTION('ref_axis',(1.,0.,0.));
#591=DIRECTION('center_axis',(0.,0.,1.));
#592=DIRECTION('ref_axis',(1.,0.,0.));
#593=DIRECTION('',(0.,0.,-1.));
#594=DIRECTION('center_axis',(0.,0.,-1.));
#595=DIRECTION('ref_axis',(1.,0.,0.));
#596=DIRECTION('center_axis',(0.,0.,1.));
#597=DIRECTION('ref_axis',(1.,0.,0.));
#598=DIRECTION('',(0.,0.,-1.));
#599=DIRECTION('center_axis',(0.,0.,-1.));
#600=DIRECTION('ref_axis',(1.,0.,0.));
#601=DIRECTION('center_axis',(0.,0.,1.));
#602=DIRECTION('ref_axis',(1.,0.,0.));
#603=DIRECTION('',(0.,0.,-1.));
#604=DIRECTION('center_axis',(0.,0.,-1.));
#605=DIRECTION('ref_axis',(1.,0.,0.));
#606=DIRECTION('center_axis',(0.,0.,1.));
#607=DIRECTION('ref_axis',(1.,0.,0.));
#608=DIRECTION('',(0.,0.,-1.));
#609=DIRECTION('center_axis',(0.,0.,-1.));
#610=DIRECTION('ref_axis',(1.,0.,0.));
#611=DIRECTION('center_axis',(-1.,0.,0.));
#612=DIRECTION('ref_axis',(0.,-1.,0.));
#613=DIRECTION('',(0.,1.,0.));
#614=DIRECTION('',(0.,0.,1.));
#615=DIRECTION('',(0.,0.,1.));
#616=DIRECTION('center_axis',(0.,-1.,0.));
#617=DIRECTION('ref_axis',(1.,0.,0.));
#618=DIRECTION('',(-1.,0.,0.));
#619=DIRECTION('',(0.,0.,1.));
#620=DIRECTION('center_axis',(1.,0.,0.));
#621=DIRECTION('ref_axis',(0.,1.,0.));
#622=DIRECTION('',(0.,-1.,0.));
#623=DIRECTION('',(0.,0.,1.));
#624=DIRECTION('center_axis',(0.,-1.,0.));
#625=DIRECTION('ref_axis',(1.,0.,0.));
#626=DIRECTION('',(-1.,0.,0.));
#627=DIRECTION('',(0.,0.,1.));
#628=DIRECTION('center_axis',(1.,0.,0.));
#629=DIRECTION('ref_axis',(0.,1.,0.));
#630=DIRECTION('',(0.,-1.,0.));
#631=DIRECTION('',(0.,0.,1.));
#632=DIRECTION('',(0.,0.,1.));
#633=DIRECTION('center_axis',(-1.,0.,0.));
#634=DIRECTION('ref_axis',(0.,-1.,0.));
#635=DIRECTION('',(0.,-1.,0.));
#636=DIRECTION('',(0.,0.,1.));
#637=DIRECTION('center_axis',(0.,-1.,0.));
#638=DIRECTION('ref_axis',(1.,0.,0.));
#639=DIRECTION('',(1.,0.,0.));
#640=DIRECTION('center_axis',(0.,0.,1.));
#641=DIRECTION('ref_axis',(1.,0.,0.));
#642=CARTESIAN_POINT('',(0.,0.,0.));
#643=CARTESIAN_POINT('Origin',(265.740012621973,-119.170005660271,0.));
#644=CARTESIAN_POINT('',(205.599995404482,-119.170005660271,0.));
#645=CARTESIAN_POINT('',(266.740012835566,-119.170005660271,0.));
#646=CARTESIAN_POINT('',(231.107434171443,-119.170005660271,0.));
#647=CARTESIAN_POINT('',(205.599995404482,-119.170005660271,10.));
#648=CARTESIAN_POINT('',(205.599995404482,-119.170005660271,0.));
#649=CARTESIAN_POINT('',(266.740012835566,-119.170005660271,10.));
#650=CARTESIAN_POINT('',(265.740012621973,-119.170005660271,10.));
#651=CARTESIAN_POINT('',(266.740012835566,-119.170005660271,0.));
#652=CARTESIAN_POINT('Origin',(266.770012409805,-73.2706570747699,0.));
#653=CARTESIAN_POINT('',(266.770665939461,-72.2707567006278,0.));
#654=CARTESIAN_POINT('',(266.763737425643,-82.8713828422443,0.));
#655=CARTESIAN_POINT('',(266.770665939461,-72.2707567006278,10.));
#656=CARTESIAN_POINT('',(266.770012409805,-73.2706570747699,10.));
#657=CARTESIAN_POINT('',(266.770665939461,-72.2707567006278,0.));
#658=CARTESIAN_POINT('Origin',(225.930763742934,-72.2400037622268,0.));
#659=CARTESIAN_POINT('',(226.396777848932,-72.2403546764632,0.));
#660=CARTESIAN_POINT('',(211.210418292804,-72.2289191647493,0.));
#661=CARTESIAN_POINT('',(226.396777848932,-72.2403546764632,10.));
#662=CARTESIAN_POINT('',(225.930763742934,-72.2400037622268,10.));
#663=CARTESIAN_POINT('',(226.396777848932,-72.2403546764632,0.));
#664=CARTESIAN_POINT('Origin',(215.366228759004,-59.0874227960637,0.));
#665=CARTESIAN_POINT('',(215.905120828883,-59.7300028370228,0.));
#666=CARTESIAN_POINT('',(219.673298049034,-64.223213273408,0.));
#667=CARTESIAN_POINT('',(215.905120828883,-59.7300028370228,10.));
#668=CARTESIAN_POINT('',(215.366228759004,-59.0874227960637,10.));
#669=CARTESIAN_POINT('',(215.905120828883,-59.7300028370228,0.));
#670=CARTESIAN_POINT('Origin',(183.140008698683,-59.7300028370228,0.));
#671=CARTESIAN_POINT('',(181.83491456269,-59.7300028370228,0.));
#672=CARTESIAN_POINT('',(189.807432209798,-59.7300028370228,0.));
#673=CARTESIAN_POINT('',(181.83491456269,-59.7300028370228,10.));
#674=CARTESIAN_POINT('',(183.140008698683,-59.7300028370228,10.));
#675=CARTESIAN_POINT('',(181.83491456269,-59.7300028370228,0.));
#676=CARTESIAN_POINT('Origin',(171.253779917375,-72.3474349770295,0.));
#677=CARTESIAN_POINT('',(171.553260143025,-71.9903209669478,0.));
#678=CARTESIAN_POINT('',(171.517674054882,-72.0327554569449,0.));
#679=CARTESIAN_POINT('',(171.553260143025,-71.9903209669478,10.));
#680=CARTESIAN_POINT('',(171.253779917375,-72.3474349770295,10.));
#681=CARTESIAN_POINT('',(171.553260143025,-71.9903209669478,0.));
#682=CARTESIAN_POINT('Origin',(127.949325342263,-72.020003699964,0.));
#683=CARTESIAN_POINT('',(126.949572908984,-72.0206842666307,0.));
#684=CARTESIAN_POINT('',(162.205129058876,-71.996684568775,0.));
#685=CARTESIAN_POINT('',(126.949572908984,-72.0206842666306,10.));
#686=CARTESIAN_POINT('',(127.949325342263,-72.020003699964,10.));
#687=CARTESIAN_POINT('',(126.949572908984,-72.0206842666307,0.));
#688=CARTESIAN_POINT('Origin',(126.970006172153,-119.170439029678,0.));
#689=CARTESIAN_POINT('',(126.970005984344,-119.170005660271,0.));
#690=CARTESIAN_POINT('',(126.964217626006,-105.813368795269,0.));
#691=CARTESIAN_POINT('',(126.970005984344,-119.170005660271,10.));
#692=CARTESIAN_POINT('',(126.970006172153,-119.170439029678,10.));
#693=CARTESIAN_POINT('',(126.970005984344,-119.170005660271,0.));
#694=CARTESIAN_POINT('Origin',(196.499995607883,-119.170005660271,0.));
#695=CARTESIAN_POINT('',(196.499995607883,-119.170005660271,0.));
#696=CARTESIAN_POINT('',(196.487425664398,-119.170005660271,0.));
#697=CARTESIAN_POINT('',(196.499995607883,-119.170005660271,10.));
#698=CARTESIAN_POINT('',(265.740012621973,-119.170005660271,10.));
#699=CARTESIAN_POINT('',(196.499995607883,-119.170005660271,0.));
#700=CARTESIAN_POINT('Origin',(196.474855720913,-92.4261722654568,10.));
#701=CARTESIAN_POINT('',(205.599995404482,-120.59999730438,10.));
#702=CARTESIAN_POINT('',(205.599995404482,-120.59999730438,10.));
#703=CARTESIAN_POINT('',(210.000003129244,-120.59999730438,10.));
#704=CARTESIAN_POINT('',(205.599995404482,-120.59999730438,10.));
#705=CARTESIAN_POINT('',(210.000003129244,-123.758349334059,10.));
#706=CARTESIAN_POINT('',(210.000003129244,-120.59999730438,10.));
#707=CARTESIAN_POINT('',(192.000002861023,-123.637283052322,10.));
#708=CARTESIAN_POINT('Ctrl Pts',(210.000003129244,-123.758349334059,10.));
#709=CARTESIAN_POINT('Ctrl Pts',(212.089795509172,-123.912230865611,10.));
#710=CARTESIAN_POINT('Ctrl Pts',(217.115937968088,-124.375638220868,10.));
#711=CARTESIAN_POINT('Ctrl Pts',(224.943483581871,-125.424504552267,10.));
#712=CARTESIAN_POINT('Ctrl Pts',(235.227416276321,-127.263350476599,10.));
#713=CARTESIAN_POINT('Ctrl Pts',(247.223867432508,-129.16335743285,10.));
#714=CARTESIAN_POINT('Ctrl Pts',(258.382473292194,-129.080067681964,10.));
#715=CARTESIAN_POINT('Ctrl Pts',(267.566659169467,-125.589429302187,10.));
#716=CARTESIAN_POINT('Ctrl Pts',(274.372407288956,-118.07409168093,10.));
#717=CARTESIAN_POINT('Ctrl Pts',(278.340720758008,-107.126920852689,10.));
#718=CARTESIAN_POINT('Ctrl Pts',(279.053819279865,-94.2364902660317,10.));
#719=CARTESIAN_POINT('Ctrl Pts',(276.260003490035,-81.2816339294798,10.));
#720=CARTESIAN_POINT('Ctrl Pts',(269.994057301888,-70.0865746981214,10.));
#721=CARTESIAN_POINT('Ctrl Pts',(260.691706524372,-61.9681319891763,10.));
#722=CARTESIAN_POINT('Ctrl Pts',(249.334859560337,-57.238655451831,10.));
#723=CARTESIAN_POINT('Ctrl Pts',(237.182545912897,-55.4448669140062,10.));
#724=CARTESIAN_POINT('Ctrl Pts',(225.467951465034,-55.6721190423754,10.));
#725=CARTESIAN_POINT('Ctrl Pts',(215.102609644702,-56.8233386650596,10.));
#726=CARTESIAN_POINT('Ctrl Pts',(206.388727922496,-57.90318512226,10.));
#727=CARTESIAN_POINT('Ctrl Pts',(198.691561808035,-58.3101250712473,10.));
#728=CARTESIAN_POINT('Ctrl Pts',(190.901576705844,-57.846788884124,10.));
#729=CARTESIAN_POINT('Ctrl Pts',(181.918125359512,-56.7094565560834,10.));
#730=CARTESIAN_POINT('Ctrl Pts',(171.161987193509,-55.5004355299172,10.));
#731=CARTESIAN_POINT('Ctrl Pts',(158.970169355711,-55.1956787670938,10.));
#732=CARTESIAN_POINT('Ctrl Pts',(146.25506465527,-56.8590722848865,10.));
#733=CARTESIAN_POINT('Ctrl Pts',(136.65387828476,-60.4809781898709,10.));
#734=CARTESIAN_POINT('Ctrl Pts',(130.349225794624,-64.6931075875441,10.));
#735=CARTESIAN_POINT('Ctrl Pts',(126.684479823527,-68.1337013907929,10.));
#736=CARTESIAN_POINT('Ctrl Pts',(125.,-70.,10.));
#737=CARTESIAN_POINT('Ctrl Pts',(123.315520176474,-71.8662986092071,10.));
#738=CARTESIAN_POINT('Ctrl Pts',(120.242346853464,-75.8908992427869,10.));
#739=CARTESIAN_POINT('Ctrl Pts',(116.599771279708,-82.7310593769397,10.));
#740=CARTESIAN_POINT('Ctrl Pts',(113.895892161962,-92.9725267738881,10.));
#741=CARTESIAN_POINT('Ctrl Pts',(114.246049473122,-105.895859277326,10.));
#742=CARTESIAN_POINT('Ctrl Pts',(118.160607439652,-117.099966952951,10.));
#743=CARTESIAN_POINT('Ctrl Pts',(125.261089974031,-125.076822816447,10.));
#744=CARTESIAN_POINT('Ctrl Pts',(135.052590881314,-129.112506015502,10.));
#745=CARTESIAN_POINT('Ctrl Pts',(147.010580775258,-129.65666576382,10.));
#746=CARTESIAN_POINT('Ctrl Pts',(160.591422297932,-127.873898757678,10.));
#747=CARTESIAN_POINT('Ctrl Pts',(172.615071467829,-125.74444145129,10.));
#748=CARTESIAN_POINT('Ctrl Pts',(181.968493750173,-124.443230092392,10.));
#749=CARTESIAN_POINT('Ctrl Pts',(188.347681107188,-123.863843416849,10.));
#750=CARTESIAN_POINT('Ctrl Pts',(191.691945678131,-123.655642547118,10.));
#751=CARTESIAN_POINT('Ctrl Pts',(192.000002861023,-123.637283052322,10.));
#752=CARTESIAN_POINT('',(192.000002861023,-120.59999730438,10.));
#753=CARTESIAN_POINT('',(192.000002861023,-123.398868850584,10.));
#754=CARTESIAN_POINT('',(196.499995607883,-120.59999730438,10.));
#755=CARTESIAN_POINT('',(196.499995607883,-120.59999730438,10.));
#756=CARTESIAN_POINT('',(196.499995607883,-119.170005660271,10.));
#757=CARTESIAN_POINT('Origin',(196.474855720913,-92.4261722654568,0.));
#758=CARTESIAN_POINT('',(265.740012621973,-119.170005660271,0.));
#759=CARTESIAN_POINT('',(260.399994143844,-115.999997407198,0.));
#760=CARTESIAN_POINT('Origin',(261.999994143844,-115.999997407198,0.));
#761=CARTESIAN_POINT('',(260.399994143844,-76.9999982789159,0.));
#762=CARTESIAN_POINT('Origin',(261.999994143844,-76.9999982789159,0.));
#763=CARTESIAN_POINT('',(130.39999704957,-115.999997407198,0.));
#764=CARTESIAN_POINT('Origin',(131.99999704957,-115.999997407198,0.));
#765=CARTESIAN_POINT('',(130.400001966953,-77.0000011473894,0.));
#766=CARTESIAN_POINT('Origin',(132.000001966953,-77.0000011473894,0.));
#767=CARTESIAN_POINT('Origin',(261.999994143844,-115.999997407198,-10.));
#768=CARTESIAN_POINT('',(260.399994143844,-115.999997407198,-10.));
#769=CARTESIAN_POINT('',(260.399994143844,-115.999997407198,-10.));
#770=CARTESIAN_POINT('Origin',(261.999994143844,-115.999997407198,-10.));
#771=CARTESIAN_POINT('Origin',(261.999994143844,-76.9999982789159,-10.));
#772=CARTESIAN_POINT('',(260.399994143844,-76.9999982789159,-10.));
#773=CARTESIAN_POINT('',(260.399994143844,-76.9999982789159,-10.));
#774=CARTESIAN_POINT('Origin',(261.999994143844,-76.9999982789159,-10.));
#775=CARTESIAN_POINT('Origin',(131.99999704957,-115.999997407198,-10.));
#776=CARTESIAN_POINT('',(130.39999704957,-115.999997407198,-10.));
#777=CARTESIAN_POINT('',(130.39999704957,-115.999997407198,-10.));
#778=CARTESIAN_POINT('Origin',(131.99999704957,-115.999997407198,-10.));
#779=CARTESIAN_POINT('Origin',(132.000001966953,-77.0000011473894,-10.));
#780=CARTESIAN_POINT('',(130.400001966953,-77.0000011473894,-10.));
#781=CARTESIAN_POINT('',(130.400001966953,-77.0000011473894,-10.));
#782=CARTESIAN_POINT('Origin',(132.000001966953,-77.0000011473894,-10.));
#783=CARTESIAN_POINT('Origin',(205.599995404482,-119.170005660271,-10.));
#784=CARTESIAN_POINT('',(205.599995404482,-120.59999730438,-10.));
#785=CARTESIAN_POINT('',(205.599995404482,-119.170005660271,-10.));
#786=CARTESIAN_POINT('',(205.599995404482,-120.59999730438,-10.));
#787=CARTESIAN_POINT('',(205.599995404482,-120.59999730438,-10.));
#788=CARTESIAN_POINT('',(205.599995404482,-119.170005660271,-10.));
#789=CARTESIAN_POINT('Origin',(196.499995607883,-119.170005660271,-10.));
#790=CARTESIAN_POINT('',(196.499995607883,-119.170005660271,-10.));
#791=CARTESIAN_POINT('',(265.740012621973,-119.170005660271,-10.));
#792=CARTESIAN_POINT('',(196.499995607883,-119.170005660271,-10.));
#793=CARTESIAN_POINT('Origin',(196.499995607883,-120.59999730438,-10.));
#794=CARTESIAN_POINT('',(196.499995607883,-120.59999730438,-10.));
#795=CARTESIAN_POINT('',(196.499995607883,-119.170005660271,-10.));
#796=CARTESIAN_POINT('',(196.499995607883,-120.59999730438,-10.));
#797=CARTESIAN_POINT('Origin',(192.000002861023,-120.59999730438,-10.));
#798=CARTESIAN_POINT('',(192.000002861023,-120.59999730438,-10.));
#799=CARTESIAN_POINT('',(196.499995607883,-120.59999730438,-10.));
#800=CARTESIAN_POINT('',(192.000002861023,-120.59999730438,-10.));
#801=CARTESIAN_POINT('Origin',(192.000002861023,-123.637283052322,-10.));
#802=CARTESIAN_POINT('',(192.000002861023,-123.637283052322,-10.));
#803=CARTESIAN_POINT('',(192.000002861023,-123.398868850584,-10.));
#804=CARTESIAN_POINT('',(192.000002861023,-123.637283052322,-10.));
#805=CARTESIAN_POINT('Ctrl Pts',(210.000003129244,-123.758349334059,-10.));
#806=CARTESIAN_POINT('Ctrl Pts',(210.000003129244,-123.758349334059,10.));
#807=CARTESIAN_POINT('Ctrl Pts',(212.089795509172,-123.912230865611,-10.));
#808=CARTESIAN_POINT('Ctrl Pts',(212.089795509172,-123.912230865611,10.));
#809=CARTESIAN_POINT('Ctrl Pts',(217.115937968088,-124.375638220868,-10.));
#810=CARTESIAN_POINT('Ctrl Pts',(217.115937968088,-124.375638220868,10.));
#811=CARTESIAN_POINT('Ctrl Pts',(224.943483581871,-125.424504552267,-10.));
#812=CARTESIAN_POINT('Ctrl Pts',(224.943483581871,-125.424504552267,10.));
#813=CARTESIAN_POINT('Ctrl Pts',(235.227416276321,-127.263350476599,-10.));
#814=CARTESIAN_POINT('Ctrl Pts',(235.227416276321,-127.263350476599,10.));
#815=CARTESIAN_POINT('Ctrl Pts',(247.223867432508,-129.16335743285,-10.));
#816=CARTESIAN_POINT('Ctrl Pts',(247.223867432508,-129.16335743285,10.));
#817=CARTESIAN_POINT('Ctrl Pts',(258.382473292194,-129.080067681964,-10.));
#818=CARTESIAN_POINT('Ctrl Pts',(258.382473292194,-129.080067681964,10.));
#819=CARTESIAN_POINT('Ctrl Pts',(267.566659169467,-125.589429302187,-10.));
#820=CARTESIAN_POINT('Ctrl Pts',(267.566659169467,-125.589429302187,10.));
#821=CARTESIAN_POINT('Ctrl Pts',(274.372407288956,-118.07409168093,-10.));
#822=CARTESIAN_POINT('Ctrl Pts',(274.372407288956,-118.07409168093,10.));
#823=CARTESIAN_POINT('Ctrl Pts',(278.340720758008,-107.126920852689,-10.));
#824=CARTESIAN_POINT('Ctrl Pts',(278.340720758008,-107.126920852689,10.));
#825=CARTESIAN_POINT('Ctrl Pts',(279.053819279865,-94.2364902660317,-10.));
#826=CARTESIAN_POINT('Ctrl Pts',(279.053819279865,-94.2364902660317,10.));
#827=CARTESIAN_POINT('Ctrl Pts',(276.260003490035,-81.2816339294798,-10.));
#828=CARTESIAN_POINT('Ctrl Pts',(276.260003490035,-81.2816339294798,10.));
#829=CARTESIAN_POINT('Ctrl Pts',(269.994057301888,-70.0865746981214,-10.));
#830=CARTESIAN_POINT('Ctrl Pts',(269.994057301888,-70.0865746981214,10.));
#831=CARTESIAN_POINT('Ctrl Pts',(260.691706524372,-61.9681319891763,-10.));
#832=CARTESIAN_POINT('Ctrl Pts',(260.691706524372,-61.9681319891763,10.));
#833=CARTESIAN_POINT('Ctrl Pts',(249.334859560337,-57.238655451831,-10.));
#834=CARTESIAN_POINT('Ctrl Pts',(249.334859560337,-57.238655451831,10.));
#835=CARTESIAN_POINT('Ctrl Pts',(237.182545912897,-55.4448669140062,-10.));
#836=CARTESIAN_POINT('Ctrl Pts',(237.182545912897,-55.4448669140062,10.));
#837=CARTESIAN_POINT('Ctrl Pts',(225.467951465034,-55.6721190423754,-10.));
#838=CARTESIAN_POINT('Ctrl Pts',(225.467951465034,-55.6721190423754,10.));
#839=CARTESIAN_POINT('Ctrl Pts',(215.102609644702,-56.8233386650596,-10.));
#840=CARTESIAN_POINT('Ctrl Pts',(215.102609644702,-56.8233386650596,10.));
#841=CARTESIAN_POINT('Ctrl Pts',(206.388727922496,-57.90318512226,-10.));
#842=CARTESIAN_POINT('Ctrl Pts',(206.388727922496,-57.90318512226,10.));
#843=CARTESIAN_POINT('Ctrl Pts',(198.691561808035,-58.3101250712473,-10.));
#844=CARTESIAN_POINT('Ctrl Pts',(198.691561808035,-58.3101250712473,10.));
#845=CARTESIAN_POINT('Ctrl Pts',(190.901576705844,-57.846788884124,-10.));
#846=CARTESIAN_POINT('Ctrl Pts',(190.901576705844,-57.846788884124,10.));
#847=CARTESIAN_POINT('Ctrl Pts',(181.918125359512,-56.7094565560834,-10.));
#848=CARTESIAN_POINT('Ctrl Pts',(181.918125359512,-56.7094565560834,10.));
#849=CARTESIAN_POINT('Ctrl Pts',(171.161987193509,-55.5004355299172,-10.));
#850=CARTESIAN_POINT('Ctrl Pts',(171.161987193509,-55.5004355299172,10.));
#851=CARTESIAN_POINT('Ctrl Pts',(158.970169355711,-55.1956787670938,-10.));
#852=CARTESIAN_POINT('Ctrl Pts',(158.970169355711,-55.1956787670938,10.));
#853=CARTESIAN_POINT('Ctrl Pts',(146.25506465527,-56.8590722848865,-10.));
#854=CARTESIAN_POINT('Ctrl Pts',(146.25506465527,-56.8590722848865,10.));
#855=CARTESIAN_POINT('Ctrl Pts',(136.65387828476,-60.4809781898709,-10.));
#856=CARTESIAN_POINT('Ctrl Pts',(136.65387828476,-60.4809781898709,10.));
#857=CARTESIAN_POINT('Ctrl Pts',(130.349225794624,-64.6931075875441,-10.));
#858=CARTESIAN_POINT('Ctrl Pts',(130.349225794624,-64.6931075875441,10.));
#859=CARTESIAN_POINT('Ctrl Pts',(126.684479823527,-68.1337013907929,-10.));
#860=CARTESIAN_POINT('Ctrl Pts',(126.684479823527,-68.1337013907929,10.));
#861=CARTESIAN_POINT('Ctrl Pts',(125.,-70.,-10.));
#862=CARTESIAN_POINT('Ctrl Pts',(125.,-70.,10.));
#863=CARTESIAN_POINT('Ctrl Pts',(123.315520176474,-71.8662986092071,-10.));
#864=CARTESIAN_POINT('Ctrl Pts',(123.315520176474,-71.8662986092071,10.));
#865=CARTESIAN_POINT('Ctrl Pts',(120.242346853464,-75.8908992427869,-10.));
#866=CARTESIAN_POINT('Ctrl Pts',(120.242346853464,-75.8908992427869,10.));
#867=CARTESIAN_POINT('Ctrl Pts',(116.599771279708,-82.7310593769397,-10.));
#868=CARTESIAN_POINT('Ctrl Pts',(116.599771279708,-82.7310593769397,10.));
#869=CARTESIAN_POINT('Ctrl Pts',(113.895892161962,-92.9725267738881,-10.));
#870=CARTESIAN_POINT('Ctrl Pts',(113.895892161962,-92.9725267738881,10.));
#871=CARTESIAN_POINT('Ctrl Pts',(114.246049473122,-105.895859277326,-10.));
#872=CARTESIAN_POINT('Ctrl Pts',(114.246049473122,-105.895859277326,10.));
#873=CARTESIAN_POINT('Ctrl Pts',(118.160607439652,-117.099966952951,-10.));
#874=CARTESIAN_POINT('Ctrl Pts',(118.160607439652,-117.099966952951,10.));
#875=CARTESIAN_POINT('Ctrl Pts',(125.261089974031,-125.076822816447,-10.));
#876=CARTESIAN_POINT('Ctrl Pts',(125.261089974031,-125.076822816447,10.));
#877=CARTESIAN_POINT('Ctrl Pts',(135.052590881314,-129.112506015502,-10.));
#878=CARTESIAN_POINT('Ctrl Pts',(135.052590881314,-129.112506015502,10.));
#879=CARTESIAN_POINT('Ctrl Pts',(147.010580775258,-129.65666576382,-10.));
#880=CARTESIAN_POINT('Ctrl Pts',(147.010580775258,-129.65666576382,10.));
#881=CARTESIAN_POINT('Ctrl Pts',(160.591422297932,-127.873898757678,-10.));
#882=CARTESIAN_POINT('Ctrl Pts',(160.591422297932,-127.873898757678,10.));
#883=CARTESIAN_POINT('Ctrl Pts',(172.615071467829,-125.74444145129,-10.));
#884=CARTESIAN_POINT('Ctrl Pts',(172.615071467829,-125.74444145129,10.));
#885=CARTESIAN_POINT('Ctrl Pts',(181.968493750173,-124.443230092392,-10.));
#886=CARTESIAN_POINT('Ctrl Pts',(181.968493750173,-124.443230092392,10.));
#887=CARTESIAN_POINT('Ctrl Pts',(188.347681107188,-123.863843416849,-10.));
#888=CARTESIAN_POINT('Ctrl Pts',(188.347681107188,-123.863843416849,10.));
#889=CARTESIAN_POINT('Ctrl Pts',(191.691945678131,-123.655642547118,-10.));
#890=CARTESIAN_POINT('Ctrl Pts',(191.691945678131,-123.655642547118,10.));
#891=CARTESIAN_POINT('Ctrl Pts',(192.000002861023,-123.637283052322,-10.));
#892=CARTESIAN_POINT('Ctrl Pts',(192.000002861023,-123.637283052322,10.));
#893=CARTESIAN_POINT('',(210.000003129244,-123.758349334059,-10.));
#894=CARTESIAN_POINT('Ctrl Pts',(210.000003129244,-123.758349334059,-10.));
#895=CARTESIAN_POINT('Ctrl Pts',(212.089795509172,-123.912230865611,-10.));
#896=CARTESIAN_POINT('Ctrl Pts',(217.115937968087,-124.375638220868,-10.));
#897=CARTESIAN_POINT('Ctrl Pts',(224.94348358187,-125.424504552267,-10.));
#898=CARTESIAN_POINT('Ctrl Pts',(235.227416276321,-127.263350476599,-10.));
#899=CARTESIAN_POINT('Ctrl Pts',(247.223867432508,-129.16335743285,-10.));
#900=CARTESIAN_POINT('Ctrl Pts',(258.382473292194,-129.080067681964,-10.));
#901=CARTESIAN_POINT('Ctrl Pts',(267.566659169467,-125.589429302187,-10.));
#902=CARTESIAN_POINT('Ctrl Pts',(274.372407288956,-118.07409168093,-10.));
#903=CARTESIAN_POINT('Ctrl Pts',(278.340720758008,-107.126920852689,-10.));
#904=CARTESIAN_POINT('Ctrl Pts',(279.053819279865,-94.2364902660317,-10.));
#905=CARTESIAN_POINT('Ctrl Pts',(276.260003490035,-81.2816339294798,-10.));
#906=CARTESIAN_POINT('Ctrl Pts',(269.994057301888,-70.0865746981214,-10.));
#907=CARTESIAN_POINT('Ctrl Pts',(260.691706524372,-61.9681319891763,-10.));
#908=CARTESIAN_POINT('Ctrl Pts',(249.334859560337,-57.238655451831,-10.));
#909=CARTESIAN_POINT('Ctrl Pts',(237.182545912897,-55.4448669140062,-10.));
#910=CARTESIAN_POINT('Ctrl Pts',(225.467951465034,-55.6721190423754,-10.));
#911=CARTESIAN_POINT('Ctrl Pts',(215.102609644702,-56.8233386650596,-10.));
#912=CARTESIAN_POINT('Ctrl Pts',(206.388727922496,-57.90318512226,-10.));
#913=CARTESIAN_POINT('Ctrl Pts',(198.691561808035,-58.3101250712473,-10.));
#914=CARTESIAN_POINT('Ctrl Pts',(190.901576705844,-57.846788884124,-10.));
#915=CARTESIAN_POINT('Ctrl Pts',(181.918125359512,-56.7094565560834,-10.));
#916=CARTESIAN_POINT('Ctrl Pts',(171.161987193509,-55.5004355299172,-10.));
#917=CARTESIAN_POINT('Ctrl Pts',(158.970169355711,-55.1956787670938,-10.));
#918=CARTESIAN_POINT('Ctrl Pts',(146.25506465527,-56.8590722848865,-10.));
#919=CARTESIAN_POINT('Ctrl Pts',(136.65387828476,-60.4809781898709,-10.));
#920=CARTESIAN_POINT('Ctrl Pts',(130.349225794624,-64.6931075875441,-10.));
#921=CARTESIAN_POINT('Ctrl Pts',(126.684479823527,-68.1337013907929,-10.));
#922=CARTESIAN_POINT('Ctrl Pts',(125.,-70.,-10.));
#923=CARTESIAN_POINT('Ctrl Pts',(123.315520176474,-71.8662986092071,-10.));
#924=CARTESIAN_POINT('Ctrl Pts',(120.242346853464,-75.8908992427869,-10.));
#925=CARTESIAN_POINT('Ctrl Pts',(116.599771279708,-82.7310593769397,-10.));
#926=CARTESIAN_POINT('Ctrl Pts',(113.895892161962,-92.9725267738881,-10.));
#927=CARTESIAN_POINT('Ctrl Pts',(114.246049473122,-105.895859277326,-10.));
#928=CARTESIAN_POINT('Ctrl Pts',(118.160607439652,-117.099966952951,-10.));
#929=CARTESIAN_POINT('Ctrl Pts',(125.261089974031,-125.076822816447,-10.));
#930=CARTESIAN_POINT('Ctrl Pts',(135.052590881314,-129.112506015502,-10.));
#931=CARTESIAN_POINT('Ctrl Pts',(147.010580775258,-129.65666576382,-10.));
#932=CARTESIAN_POINT('Ctrl Pts',(160.591422297932,-127.873898757678,-10.));
#933=CARTESIAN_POINT('Ctrl Pts',(172.615071467829,-125.74444145129,-10.));
#934=CARTESIAN_POINT('Ctrl Pts',(181.968493750173,-124.443230092392,-10.));
#935=CARTESIAN_POINT('Ctrl Pts',(188.347681107188,-123.863843416849,-10.));
#936=CARTESIAN_POINT('Ctrl Pts',(191.691945678131,-123.655642547118,-10.));
#937=CARTESIAN_POINT('Ctrl Pts',(192.000002861023,-123.637283052322,-10.));
#938=CARTESIAN_POINT('',(210.000003129244,-123.758349334059,-10.));
#939=CARTESIAN_POINT('Origin',(210.000003129244,-120.59999730438,-10.));
#940=CARTESIAN_POINT('',(210.000003129244,-120.59999730438,-10.));
#941=CARTESIAN_POINT('',(210.000003129244,-120.59999730438,-10.));
#942=CARTESIAN_POINT('',(210.000003129244,-120.59999730438,-10.));
#943=CARTESIAN_POINT('Origin',(205.599995404482,-120.59999730438,-10.));
#944=CARTESIAN_POINT('',(205.599995404482,-120.59999730438,-10.));
#945=CARTESIAN_POINT('Origin',(196.474855720913,-92.4261722654568,-10.));
#946=UNCERTAINTY_MEASURE_WITH_UNIT(LENGTH_MEASURE(0.01),#950,
'DISTANCE_ACCURACY_VALUE',
'Maximum model space distance between geometric entities at asserted c
onnectivities');
#947=UNCERTAINTY_MEASURE_WITH_UNIT(LENGTH_MEASURE(0.01),#950,
'DISTANCE_ACCURACY_VALUE',
'Maximum model space distance between geometric entities at asserted c
onnectivities');
#948=(
GEOMETRIC_REPRESENTATION_CONTEXT(3)
GLOBAL_UNCERTAINTY_ASSIGNED_CONTEXT((#946))
GLOBAL_UNIT_ASSIGNED_CONTEXT((#950,#952,#953))
REPRESENTATION_CONTEXT('','3D')
);
#949=(
GEOMETRIC_REPRESENTATION_CONTEXT(3)
GLOBAL_UNCERTAINTY_ASSIGNED_CONTEXT((#947))
GLOBAL_UNIT_ASSIGNED_CONTEXT((#950,#952,#953))
REPRESENTATION_CONTEXT('','3D')
);
#950=(
LENGTH_UNIT()
NAMED_UNIT(*)
SI_UNIT(.MILLI.,.METRE.)
);
#951=(
LENGTH_UNIT()
NAMED_UNIT(*)
SI_UNIT($,.METRE.)
);
#952=(
NAMED_UNIT(*)
PLANE_ANGLE_UNIT()
SI_UNIT($,.RADIAN.)
);
#953=(
NAMED_UNIT(*)
SI_UNIT($,.STERADIAN.)
SOLID_ANGLE_UNIT()
);
#954=SHAPE_DEFINITION_REPRESENTATION(#955,#956);
#955=PRODUCT_DEFINITION_SHAPE('',$,#958);
#956=SHAPE_REPRESENTATION('',(#492),#948);
#957=PRODUCT_DEFINITION_CONTEXT('part definition',#962,'design');
#958=PRODUCT_DEFINITION('FusionComponent','FusionComponent',#959,#957);
#959=PRODUCT_DEFINITION_FORMATION('',$,#964);
#960=PRODUCT_RELATED_PRODUCT_CATEGORY('FusionComponent',
'FusionComponent',(#964));
#961=APPLICATION_PROTOCOL_DEFINITION('international standard',
'automotive_design',2009,#962);
#962=APPLICATION_CONTEXT(
'Core Data for Automotive Mechanical Design Process');
#963=PRODUCT_CONTEXT('part definition',#962,'mechanical');
#964=PRODUCT('FusionComponent','FusionComponent',$,(#963));
#965=PRESENTATION_STYLE_ASSIGNMENT((#966));
#966=SURFACE_STYLE_USAGE(.BOTH.,#967);
#967=SURFACE_SIDE_STYLE('',(#968));
#968=SURFACE_STYLE_FILL_AREA(#969);
#969=FILL_AREA_STYLE('Steel - Satin',(#970));
#970=FILL_AREA_STYLE_COLOUR('Steel - Satin',#971);
#971=COLOUR_RGB('Steel - Satin',0.627450980392157,0.627450980392157,0.627450980392157);
ENDSEC;
END-ISO-10303-21;
